<?xml version="1.0" encoding="UTF-8"?>
<svg id="_レイヤー_2" data-name="レイヤー 2" xmlns="http://www.w3.org/2000/svg" viewBox="0 0 81.23 305.08">
  <defs>
    <style>
      .cls-1 {
        opacity: .5;
      }
    </style>
  </defs>
  <g id="_レイヤー_1-2" data-name="レイヤー 1">
    <g class="cls-1">
      <path d="m63.19,0h17.44c.23,0,.39.16.39.39v5.65c0,6.07-4.01,9.32-9.11,9.32s-9.11-3.25-9.11-9.32V.39c0-.23.16-.39.39-.39Zm3.25,5.99c0,3.41,1.93,5.18,5.47,5.18s5.47-1.77,5.47-5.18v-1.88h-10.93v1.88Z"/>
      <path d="m63.19,34.77h17.44c.23,0,.39.16.39.39v9.4c0,.23-.16.39-.39.39h-2.86c-.23,0-.39-.16-.39-.39v-5.67h-3.57v5.34c0,.23-.16.39-.39.39h-2.86c-.23,0-.39-.16-.39-.39v-5.34h-3.72v5.65c0,.23-.16.42-.39.42h-2.86c-.23,0-.39-.18-.39-.42v-9.37c0-.23.16-.39.39-.39Z"/>
      <path d="m65.37,64.23c.16-.13.36-.13.57.05l1.98,1.74c.18.16.26.36.08.6-1.17,1.2-1.74,2.19-1.74,3.57s.52,2.26,1.67,2.26c1.07,0,1.41-.78,1.93-1.93l1.04-2.21c.86-1.93,2.24-3.75,5.08-3.75,3.41,0,5.26,2.58,5.26,5.75,0,2.16-.86,3.96-2.42,5.47-.16.16-.39.18-.6.03l-2.06-1.72c-.18-.13-.26-.36-.13-.55.99-1.17,1.43-2.03,1.43-3.1,0-1.2-.6-1.9-1.54-1.9-.99,0-1.3.73-1.93,2.06l-.83,1.85c-.91,1.93-2.11,4.01-5.23,4.01-3.8,0-5.44-3.12-5.44-6.2,0-2.89,1.43-4.95,2.89-6.04Z"/>
      <path d="m63.19,95.92h17.44c.23,0,.39.16.39.39v3.33c0,.23-.16.39-.39.39h-17.44c-.23,0-.39-.16-.39-.39v-3.33c0-.23.16-.39.39-.39Z"/>
      <path d="m71.83,119.61c5.36,0,9.4,4.22,9.4,9.37,0,2.66-.99,4.82-2.6,6.38-.23.21-.47.21-.73-.03l-2.06-1.93c-.23-.21-.23-.42-.08-.62.86-.99,1.43-2.24,1.43-3.77,0-2.97-2.26-5.23-5.36-5.23s-5.34,2.26-5.34,5.44c0,2.63,1.48,4.14,3.2,4.24v-4.29c0-.23.18-.39.42-.39h2.84c.23,0,.39.16.39.39v7.89c0,.23-.16.39-.39.39h-1.87c-4.74,0-8.62-3.15-8.62-8.36s4.01-9.48,9.37-9.48Z"/>
      <path d="m63.06,166.9l11.27-6.04h-11.14c-.23,0-.39-.16-.39-.39v-3.33c0-.23.16-.39.39-.39h17.44c.23,0,.39.16.39.39v3.88c0,.21-.08.36-.26.47l-11.27,6.04h11.14c.23,0,.39.16.39.39v3.33c0,.23-.16.39-.39.39h-17.44c-.23,0-.39-.16-.39-.39v-3.88c0-.21.08-.36.26-.47Z"/>
      <path d="m31.96,0h17.44c.23,0,.39.16.39.39v6.33c0,3.25-2.11,5.05-4.63,5.05-1.95,0-3.23-1.17-3.8-2.34-.47,1.77-1.95,3.54-4.61,3.54-3.07,0-5.18-2.11-5.18-6.51V.39c0-.23.16-.39.39-.39Zm3.23,6.2c0,1.54.65,2.58,2.16,2.58s2.11-1.04,2.11-2.58v-2.13h-4.27v2.13Zm7.47-.34c0,1.25.49,2.03,1.82,2.03,1.25,0,1.69-.78,1.69-2.03v-1.8h-3.51v1.8Z"/>
      <path d="m31.96,32.11h17.44c.23,0,.39.16.39.39v9.4c0,.23-.16.39-.39.39h-2.86c-.23,0-.39-.16-.39-.39v-5.67h-3.57v5.34c0,.23-.16.39-.39.39h-2.86c-.23,0-.39-.16-.39-.39v-5.34h-3.72v5.65c0,.23-.16.42-.39.42h-2.86c-.23,0-.39-.18-.39-.42v-9.37c0-.23.16-.39.39-.39Z"/>
      <path d="m31.96,66.57h7.99l9.37-5.31c.29-.16.47-.05.47.26v3.46c0,.21-.08.36-.26.47l-5.83,3.18,5.83,3.18c.18.1.26.29.26.49v3.46c0,.31-.18.42-.47.26l-9.4-5.31h-7.97c-.23,0-.39-.18-.39-.42v-3.33c0-.23.16-.39.39-.39Z"/>
      <path d="m40.6,92.57c5.28,0,9.4,4.22,9.4,9.37s-4.11,9.4-9.4,9.4-9.37-4.22-9.37-9.4,4.11-9.37,9.37-9.37Zm-5.34,9.37c0,2.97,2.32,5.21,5.34,5.21s5.36-2.24,5.36-5.21-2.29-5.21-5.36-5.21-5.34,2.26-5.34,5.21Z"/>
      <path d="m31.83,141.03l11.27-6.04h-11.14c-.23,0-.39-.16-.39-.39v-3.33c0-.23.16-.39.39-.39h17.44c.23,0,.39.16.39.39v3.88c0,.21-.08.36-.26.47l-11.27,6.04h11.14c.23,0,.39.16.39.39v3.33c0,.23-.16.39-.39.39h-17.44c-.23,0-.39-.16-.39-.39v-3.88c0-.21.08-.36.26-.47Z"/>
      <path d="m31.96,165.85h17.44c.23,0,.39.16.39.39v5.65c0,6.07-4.01,9.32-9.11,9.32s-9.11-3.25-9.11-9.32v-5.65c0-.23.16-.39.39-.39Zm3.25,5.99c0,3.41,1.93,5.18,5.47,5.18s5.47-1.77,5.47-5.18v-1.87h-10.93v1.87Z"/>
      <path d="m.73,0h17.44c.23,0,.39.16.39.39v6.33c0,3.25-2.11,5.05-4.63,5.05-1.95,0-3.23-1.17-3.8-2.34-.47,1.77-1.95,3.54-4.61,3.54C2.45,12.96.34,10.85.34,6.46V.39c0-.23.16-.39.39-.39Zm3.23,6.2c0,1.54.65,2.58,2.16,2.58s2.11-1.04,2.11-2.58v-2.13H3.96v2.13Zm7.47-.34c0,1.25.49,2.03,1.82,2.03,1.25,0,1.69-.78,1.69-2.03v-1.8h-3.51v1.8Z"/>
      <path d="m9.37,31.59c5.28,0,9.4,4.22,9.4,9.37s-4.11,9.4-9.4,9.4S0,46.14,0,40.96s4.11-9.37,9.37-9.37Zm-5.34,9.37c0,2.97,2.32,5.21,5.34,5.21s5.36-2.24,5.36-5.21-2.29-5.21-5.36-5.21-5.34,2.26-5.34,5.21Z"/>
      <path d="m7.47,69.77h10.7c.23,0,.39.16.39.39v3.33c0,.23-.16.39-.39.39H7.52c-2.21,0-3.49,1.04-3.49,2.94s1.28,2.94,3.49,2.94h10.65c.23,0,.39.16.39.39v3.33c0,.23-.16.39-.39.39H7.47c-4.95,0-7.47-2.94-7.47-7.05s2.53-7.05,7.47-7.05Z"/>
      <path d="m.6,113.99l11.27-6.04H.73c-.23,0-.39-.16-.39-.39v-3.33c0-.23.16-.39.39-.39h17.44c.23,0,.39.16.39.39v3.88c0,.21-.08.36-.26.47l-11.27,6.04h11.14c.23,0,.39.16.39.39v3.33c0,.23-.16.39-.39.39H.73c-.23,0-.39-.16-.39-.39v-3.88c0-.21.08-.36.26-.47Z"/>
      <path d="m.73,138.81h17.44c.23,0,.39.16.39.39v5.65c0,6.07-4.01,9.32-9.11,9.32s-9.11-3.25-9.11-9.32v-5.65c0-.23.16-.39.39-.39Zm3.25,5.99c0,3.41,1.93,5.18,5.47,5.18s5.47-1.77,5.47-5.18v-1.88H3.98v1.88Z"/>
      <path d="m.78,170.98l17.47,6.04c.21.08.31.29.31.49v3.54c0,.21-.1.42-.31.49l-17.47,6.04c-.26.1-.44-.03-.44-.31v-3.49c0-.21.08-.36.31-.44l2.45-.78v-6.56l-2.45-.78c-.23-.08-.31-.23-.31-.44v-3.46c0-.29.18-.44.44-.34Zm5.96,10.41l6.59-2.11-6.59-2.11v4.22Z"/>
      <path d="m.6,215.53l6.01-3.72v-.94H.73c-.23,0-.39-.16-.39-.39v-3.33c0-.23.16-.39.39-.39h17.44c.23,0,.39.16.39.39v5.6c0,4.4-2.45,6.48-5.99,6.48-2.58,0-4.58-1.12-5.47-3.44l-6.3,4.04c-.29.18-.47.05-.47-.26v-3.57c0-.21.08-.36.26-.47Zm9.66-2.89c0,1.38.44,2.66,2.32,2.66s2.34-1.28,2.34-2.66v-1.77h-4.66v1.77Z"/>
      <path d="m.73,239.19h17.44c.23,0,.39.16.39.39v3.33c0,.23-.16.39-.39.39H.73c-.23,0-.39-.16-.39-.39v-3.33c0-.23.16-.39.39-.39Z"/>
      <path d="m.73,263.39h17.44c.23,0,.39.16.39.39v9.4c0,.23-.16.39-.39.39h-2.86c-.23,0-.39-.16-.39-.39v-5.67h-3.57v5.34c0,.23-.16.39-.39.39h-2.86c-.23,0-.39-.16-.39-.39v-5.34h-3.72v5.65c0,.23-.16.42-.39.42H.73c-.23,0-.39-.18-.39-.42v-9.37c0-.23.16-.39.39-.39Z"/>
      <path d="m2.92,292.85c.16-.13.36-.13.57.05l1.98,1.74c.18.16.26.36.08.6-1.17,1.2-1.74,2.19-1.74,3.57s.52,2.26,1.67,2.26c1.07,0,1.41-.78,1.93-1.93l1.04-2.21c.86-1.93,2.24-3.75,5.08-3.75,3.41,0,5.26,2.58,5.26,5.75,0,2.16-.86,3.96-2.42,5.47-.16.16-.39.18-.6.03l-2.06-1.72c-.18-.13-.26-.36-.13-.55.99-1.17,1.43-2.03,1.43-3.1,0-1.2-.6-1.9-1.54-1.9-.99,0-1.3.73-1.93,2.06l-.83,1.85c-.91,1.93-2.11,4.01-5.23,4.01-3.8,0-5.44-3.12-5.44-6.2,0-2.89,1.43-4.95,2.89-6.04Z"/>
    </g>
  </g>
</svg>