<?xml version="1.0" encoding="UTF-8"?>
<svg id="_レイヤー_2" data-name="レイヤー 2" xmlns="http://www.w3.org/2000/svg" viewBox="0 0 278.57 179.44">
  <defs>
    <style>
      .cls-1 {
        fill: none;
        stroke: #000;
      }
    </style>
  </defs>
  <g id="_レイヤー_1-2" data-name="レイヤー 1">
    <g>
      <path class="cls-1" d="m.5,105.36v-31.51c0-.42.28-.71.71-.71h10.11c7.95,0,11.71,4.42,11.71,10.82s-3.76,10.77-11.71,10.77h-3.39v10.63c0,.42-.28.71-.71.71H1.21c-.42,0-.71-.28-.71-.71Zm10.63-17.21c2.49,0,4.8-.8,4.8-4.19s-2.3-4.23-4.8-4.23h-3.2v8.42h3.2Z"/>
      <path class="cls-1" d="m31.59,105.36v-31.51c0-.42.28-.71.71-.71h16.98c.42,0,.71.28.71.71v5.17c0,.42-.28.71-.71.71h-10.25v6.44h9.64c.42,0,.71.28.71.71v5.17c0,.42-.28.71-.71.71h-9.64v6.72h10.21c.42,0,.75.28.75.71v5.17c0,.42-.33.71-.75.71h-16.93c-.42,0-.71-.28-.71-.71Z"/>
      <path class="cls-1" d="m75.28,105.59l-6.72-10.86h-1.69v10.63c0,.42-.28.71-.71.71h-6.02c-.42,0-.71-.28-.71-.71v-31.51c0-.42.28-.71.71-.71h10.11c7.95,0,11.71,4.42,11.71,10.82,0,4.66-2.02,8.28-6.21,9.88l7.29,11.38c.33.52.09.85-.47.85h-6.44c-.38,0-.66-.14-.85-.47Zm-5.22-17.45c2.49,0,4.8-.8,4.8-4.19s-2.3-4.23-4.8-4.23h-3.2v8.42h3.2Z"/>
      <path class="cls-1" d="m89.34,101.41c-.23-.28-.23-.66.09-1.04l3.15-3.57c.28-.33.66-.47,1.08-.14,2.16,2.12,3.95,3.15,6.44,3.15s4.09-.94,4.09-3.01c0-1.93-1.41-2.54-3.48-3.48l-4-1.88c-3.48-1.55-6.77-4.04-6.77-9.17,0-6.16,4.66-9.5,10.39-9.5,3.9,0,7.15,1.55,9.88,4.37.28.28.33.71.05,1.08l-3.1,3.71c-.24.33-.66.47-.99.24-2.12-1.79-3.67-2.59-5.6-2.59-2.16,0-3.43,1.08-3.43,2.77,0,1.79,1.32,2.35,3.72,3.48l3.34,1.5c3.48,1.65,7.24,3.81,7.24,9.45,0,6.87-5.64,9.83-11.19,9.83-5.22,0-8.94-2.59-10.91-5.22Z"/>
      <path class="cls-1" d="m119.35,89.75c0-9.55,7.62-16.98,16.93-16.98s16.98,7.43,16.98,16.98-7.62,16.93-16.98,16.93-16.93-7.43-16.93-16.93Zm16.93,9.64c5.36,0,9.41-4.19,9.41-9.64s-4.04-9.69-9.41-9.69-9.41,4.14-9.41,9.69,4.09,9.64,9.41,9.64Z"/>
      <path class="cls-1" d="m180.58,105.59l-10.91-20.36v20.13c0,.42-.28.71-.71.71h-6.02c-.42,0-.71-.28-.71-.71v-31.51c0-.42.28-.71.71-.71h7.01c.38,0,.66.14.85.47l10.91,20.36v-20.13c0-.42.28-.71.71-.71h6.02c.42,0,.71.28.71.71v31.51c0,.42-.28.71-.71.71h-7.01c-.38,0-.66-.14-.85-.47Z"/>
      <path class="cls-1" d="m197.23,105.26l10.91-31.56c.14-.38.52-.56.89-.56h6.4c.38,0,.75.19.89.56l10.91,31.56c.19.47-.05.8-.56.8h-6.3c-.38,0-.66-.14-.8-.56l-1.41-4.42h-11.85l-1.41,4.42c-.14.42-.42.56-.8.56h-6.25c-.52,0-.8-.33-.61-.8Zm18.81-10.77l-3.81-11.9-3.81,11.9h7.62Z"/>
      <path class="cls-1" d="m235.32,105.36v-31.51c0-.42.28-.71.71-.71h6.02c.42,0,.71.28.71.71v25.63h9.59c.42,0,.71.28.71.71v5.17c0,.42-.28.71-.71.71h-16.32c-.42,0-.71-.28-.71-.71Z"/>
    </g>
    <g>
      <path class="cls-1" d="m.5,177.63v-31.51c0-.42.28-.71.71-.71h10.11c7.95,0,11.71,4.42,11.71,10.82s-3.76,10.77-11.71,10.77h-3.39v10.63c0,.42-.28.71-.71.71H1.21c-.42,0-.71-.28-.71-.71Zm10.63-17.21c2.49,0,4.8-.8,4.8-4.19s-2.3-4.23-4.8-4.23h-3.2v8.42h3.2Z"/>
      <path class="cls-1" d="m30.65,162.01c0-9.55,7.62-16.98,16.93-16.98s16.98,7.43,16.98,16.98-7.62,16.93-16.98,16.93-16.93-7.43-16.93-16.93Zm16.93,9.64c5.36,0,9.41-4.19,9.41-9.64s-4.04-9.69-9.41-9.69-9.41,4.14-9.41,9.69,4.09,9.64,9.41,9.64Z"/>
      <path class="cls-1" d="m89.39,177.86l-6.72-10.86h-1.69v10.63c0,.42-.28.71-.71.71h-6.02c-.42,0-.71-.28-.71-.71v-31.51c0-.42.28-.71.71-.71h10.11c7.95,0,11.71,4.42,11.71,10.82,0,4.66-2.02,8.28-6.21,9.88l7.29,11.38c.33.52.09.85-.47.85h-6.44c-.38,0-.66-.14-.85-.47Zm-5.22-17.45c2.49,0,4.8-.8,4.8-4.19s-2.3-4.23-4.8-4.23h-3.2v8.42h3.2Z"/>
      <path class="cls-1" d="m109.47,177.63v-25.63h-6.25c-.42,0-.71-.28-.71-.71v-5.17c0-.42.28-.71.71-.71h19.99c.42,0,.75.28.75.71v5.17c0,.42-.33.71-.75.71h-6.25v25.63c0,.42-.28.71-.71.71h-6.02c-.42,0-.75-.28-.75-.71Z"/>
      <path class="cls-1" d="m132.94,177.63v-31.51c0-.42.28-.71.71-.71h16.79c.42,0,.71.28.71.71v5.17c0,.42-.28.71-.71.71h-10.06v6.21h9.45c.42,0,.71.28.71.71v5.17c0,.42-.28.71-.71.71h-9.45v12.84c0,.42-.28.71-.71.71h-6.02c-.42,0-.71-.28-.71-.71Z"/>
      <path class="cls-1" d="m158.52,162.01c0-9.55,7.62-16.98,16.93-16.98s16.98,7.43,16.98,16.98-7.62,16.93-16.98,16.93-16.93-7.43-16.93-16.93Zm16.93,9.64c5.36,0,9.41-4.19,9.41-9.64s-4.04-9.69-9.41-9.69-9.41,4.14-9.41,9.69,4.09,9.64,9.41,9.64Z"/>
      <path class="cls-1" d="m201.42,177.63v-31.51c0-.42.28-.71.71-.71h6.02c.42,0,.71.28.71.71v25.63h9.59c.42,0,.71.28.71.71v5.17c0,.42-.28.71-.71.71h-16.32c-.42,0-.71-.28-.71-.71Z"/>
      <path class="cls-1" d="m227.71,177.63v-31.51c0-.42.28-.71.71-.71h6.02c.42,0,.71.28.71.71v31.51c0,.42-.28.71-.71.71h-6.02c-.42,0-.71-.28-.71-.71Z"/>
      <path class="cls-1" d="m244.17,162.01c0-9.55,7.62-16.98,16.93-16.98s16.98,7.43,16.98,16.98-7.62,16.93-16.98,16.93-16.93-7.43-16.93-16.93Zm16.93,9.64c5.36,0,9.41-4.19,9.41-9.64s-4.04-9.69-9.41-9.69-9.41,4.14-9.41,9.69,4.09,9.64,9.41,9.64Z"/>
    </g>
    <g>
      <path class="cls-1" d="m.5,33.09V1.58c0-.42.28-.71.71-.71h10.21c10.96,0,16.84,7.24,16.84,16.46s-5.88,16.46-16.84,16.46H1.21c-.42,0-.71-.28-.71-.71Zm10.82-5.88c6.16,0,9.36-3.48,9.36-9.88s-3.2-9.88-9.36-9.88h-3.39v19.75h3.39Z"/>
      <path class="cls-1" d="m37,33.09V1.58c0-.42.28-.71.71-.71h16.98c.42,0,.71.28.71.71v5.17c0,.42-.28.71-.71.71h-10.25v6.44h9.64c.42,0,.71.28.71.71v5.17c0,.42-.28.71-.71.71h-9.64v6.72h10.21c.42,0,.75.28.75.71v5.17c0,.42-.33.71-.75.71h-16.93c-.42,0-.71-.28-.71-.71Z"/>
      <path class="cls-1" d="m73.63,33.23L62.72,1.68c-.19-.47.09-.8.61-.8h6.25c.38,0,.66.14.8.56l7.34,22.9,7.34-22.9c.14-.42.42-.56.8-.56h6.3c.52,0,.75.33.56.8l-10.91,31.56c-.14.38-.52.56-.89.56h-6.4c-.38,0-.75-.19-.89-.56Z"/>
      <path class="cls-1" d="m100.58,33.09V1.58c0-.42.28-.71.71-.71h16.98c.42,0,.71.28.71.71v5.17c0,.42-.28.71-.71.71h-10.25v6.44h9.64c.42,0,.71.28.71.71v5.17c0,.42-.28.71-.71.71h-9.64v6.72h10.21c.42,0,.75.28.75.71v5.17c0,.42-.33.71-.75.71h-16.93c-.42,0-.71-.28-.71-.71Z"/>
      <path class="cls-1" d="m128.42,33.09V1.58c0-.42.28-.71.71-.71h6.02c.42,0,.71.28.71.71v25.63h9.59c.42,0,.71.28.71.71v5.17c0,.42-.28.71-.71.71h-16.32c-.42,0-.71-.28-.71-.71Z"/>
      <path class="cls-1" d="m151.42,17.48c0-9.55,7.62-16.98,16.93-16.98s16.98,7.43,16.98,16.98-7.62,16.93-16.98,16.93-16.93-7.43-16.93-16.93Zm16.93,9.64c5.36,0,9.41-4.19,9.41-9.64s-4.04-9.69-9.41-9.69-9.41,4.14-9.41,9.69,4.09,9.64,9.41,9.64Z"/>
      <path class="cls-1" d="m194.31,33.09V1.58c0-.42.28-.71.71-.71h10.11c7.95,0,11.71,4.42,11.71,10.82s-3.76,10.77-11.71,10.77h-3.39v10.63c0,.42-.28.71-.71.71h-6.02c-.42,0-.71-.28-.71-.71Zm10.63-17.21c2.49,0,4.8-.8,4.8-4.19s-2.3-4.23-4.8-4.23h-3.2v8.42h3.2Z"/>
      <path class="cls-1" d="m225.4,33.09V1.58c0-.42.28-.71.71-.71h16.98c.42,0,.71.28.71.71v5.17c0,.42-.28.71-.71.71h-10.25v6.44h9.64c.42,0,.71.28.71.71v5.17c0,.42-.28.71-.71.71h-9.64v6.72h10.21c.42,0,.75.28.75.71v5.17c0,.42-.33.71-.75.71h-16.93c-.42,0-.71-.28-.71-.71Z"/>
      <path class="cls-1" d="m269.09,33.33l-6.73-10.86h-1.69v10.63c0,.42-.28.71-.71.71h-6.02c-.42,0-.71-.28-.71-.71V1.58c0-.42.28-.71.71-.71h10.11c7.95,0,11.71,4.42,11.71,10.82,0,4.66-2.02,8.28-6.21,9.88l7.29,11.38c.33.52.09.85-.47.85h-6.44c-.38,0-.66-.14-.85-.47Zm-5.22-17.45c2.49,0,4.8-.8,4.8-4.19s-2.3-4.23-4.8-4.23h-3.2v8.42h3.2Z"/>
    </g>
  </g>
</svg>