<?xml version="1.0" encoding="UTF-8"?>
<svg id="_レイヤー_2" data-name="レイヤー 2" xmlns="http://www.w3.org/2000/svg" viewBox="0 0 279.51 179.44">
  <defs>
    <style>
      .cls-1 {
        fill: none;
        stroke: #000;
      }
    </style>
  </defs>
  <g id="_レイヤー_1-2" data-name="レイヤー 1">
    <g>
      <path class="cls-1" d="m1.44,105.36v-31.51c0-.42.28-.71.71-.71h10.11c7.95,0,11.71,4.42,11.71,10.82s-3.76,10.77-11.71,10.77h-3.39v10.63c0,.42-.28.71-.71.71H2.15c-.42,0-.71-.28-.71-.71Zm10.63-17.21c2.49,0,4.8-.8,4.8-4.19s-2.3-4.23-4.8-4.23h-3.2v8.42h3.2Z"/>
      <path class="cls-1" d="m32.53,105.36v-31.51c0-.42.28-.71.71-.71h16.98c.42,0,.71.28.71.71v5.17c0,.42-.28.71-.71.71h-10.25v6.44h9.64c.42,0,.71.28.71.71v5.17c0,.42-.28.71-.71.71h-9.64v6.72h10.21c.42,0,.75.28.75.71v5.17c0,.42-.33.71-.75.71h-16.93c-.42,0-.71-.28-.71-.71Z"/>
      <path class="cls-1" d="m76.22,105.59l-6.72-10.86h-1.69v10.63c0,.42-.28.71-.71.71h-6.02c-.42,0-.71-.28-.71-.71v-31.51c0-.42.28-.71.71-.71h10.11c7.95,0,11.71,4.42,11.71,10.82,0,4.66-2.02,8.28-6.21,9.88l7.29,11.38c.33.52.09.85-.47.85h-6.44c-.38,0-.66-.14-.85-.47Zm-5.22-17.45c2.49,0,4.8-.8,4.8-4.19s-2.3-4.23-4.8-4.23h-3.2v8.42h3.2Z"/>
      <path class="cls-1" d="m90.28,101.41c-.23-.28-.23-.66.09-1.03l3.15-3.57c.28-.33.66-.47,1.08-.14,2.16,2.12,3.95,3.15,6.44,3.15s4.09-.94,4.09-3.01c0-1.93-1.41-2.54-3.48-3.48l-4-1.88c-3.48-1.55-6.77-4.04-6.77-9.17,0-6.16,4.66-9.5,10.39-9.5,3.9,0,7.15,1.55,9.88,4.37.28.28.33.71.05,1.08l-3.1,3.72c-.24.33-.66.47-.99.23-2.12-1.79-3.67-2.59-5.6-2.59-2.16,0-3.43,1.08-3.43,2.77,0,1.79,1.32,2.35,3.71,3.48l3.34,1.5c3.48,1.65,7.24,3.81,7.24,9.45,0,6.87-5.64,9.83-11.19,9.83-5.22,0-8.94-2.59-10.91-5.22Z"/>
      <path class="cls-1" d="m120.29,89.75c0-9.55,7.62-16.98,16.93-16.98s16.98,7.43,16.98,16.98-7.62,16.93-16.98,16.93-16.93-7.43-16.93-16.93Zm16.93,9.64c5.36,0,9.41-4.19,9.41-9.64s-4.04-9.69-9.41-9.69-9.41,4.14-9.41,9.69,4.09,9.64,9.41,9.64Z"/>
      <path class="cls-1" d="m181.52,105.59l-10.91-20.36v20.13c0,.42-.28.71-.71.71h-6.02c-.42,0-.71-.28-.71-.71v-31.51c0-.42.28-.71.71-.71h7.01c.38,0,.66.14.85.47l10.91,20.36v-20.13c0-.42.28-.71.71-.71h6.02c.42,0,.71.28.71.71v31.51c0,.42-.28.71-.71.71h-7.01c-.38,0-.66-.14-.85-.47Z"/>
      <path class="cls-1" d="m198.17,105.26l10.91-31.56c.14-.38.52-.56.89-.56h6.4c.38,0,.75.19.89.56l10.91,31.56c.19.47-.05.8-.56.8h-6.3c-.38,0-.66-.14-.8-.56l-1.41-4.42h-11.85l-1.41,4.42c-.14.42-.42.56-.8.56h-6.25c-.52,0-.8-.33-.61-.8Zm18.81-10.77l-3.81-11.9-3.81,11.9h7.62Z"/>
      <path class="cls-1" d="m236.27,105.36v-31.51c0-.42.28-.71.71-.71h6.02c.42,0,.71.28.71.71v25.63h9.59c.42,0,.71.28.71.71v5.17c0,.42-.28.71-.71.71h-16.32c-.42,0-.71-.28-.71-.71Z"/>
    </g>
    <g>
      <path class="cls-1" d="m1.44,177.63v-31.51c0-.42.28-.71.71-.71h10.11c7.95,0,11.71,4.42,11.71,10.82s-3.76,10.77-11.71,10.77h-3.39v10.63c0,.42-.28.71-.71.71H2.15c-.42,0-.71-.28-.71-.71Zm10.63-17.21c2.49,0,4.8-.8,4.8-4.19s-2.3-4.23-4.8-4.23h-3.2v8.42h3.2Z"/>
      <path class="cls-1" d="m31.59,162.01c0-9.55,7.62-16.98,16.93-16.98s16.98,7.43,16.98,16.98-7.62,16.93-16.98,16.93-16.93-7.43-16.93-16.93Zm16.93,9.64c5.36,0,9.41-4.19,9.41-9.64s-4.04-9.69-9.41-9.69-9.41,4.14-9.41,9.69,4.09,9.64,9.41,9.64Z"/>
      <path class="cls-1" d="m90.33,177.86l-6.72-10.86h-1.69v10.63c0,.42-.28.71-.71.71h-6.02c-.42,0-.71-.28-.71-.71v-31.51c0-.42.28-.71.71-.71h10.11c7.95,0,11.71,4.42,11.71,10.82,0,4.66-2.02,8.28-6.21,9.88l7.29,11.38c.33.52.09.85-.47.85h-6.44c-.38,0-.66-.14-.85-.47Zm-5.22-17.45c2.49,0,4.8-.8,4.8-4.19s-2.3-4.23-4.8-4.23h-3.2v8.42h3.2Z"/>
      <path class="cls-1" d="m110.41,177.63v-25.63h-6.25c-.42,0-.71-.28-.71-.71v-5.17c0-.42.28-.71.71-.71h19.99c.42,0,.75.28.75.71v5.17c0,.42-.33.71-.75.71h-6.25v25.63c0,.42-.28.71-.71.71h-6.02c-.42,0-.75-.28-.75-.71Z"/>
      <path class="cls-1" d="m133.88,177.63v-31.51c0-.42.28-.71.71-.71h16.79c.42,0,.71.28.71.71v5.17c0,.42-.28.71-.71.71h-10.06v6.21h9.45c.42,0,.71.28.71.71v5.17c0,.42-.28.71-.71.71h-9.45v12.84c0,.42-.28.71-.71.71h-6.02c-.42,0-.71-.28-.71-.71Z"/>
      <path class="cls-1" d="m159.46,162.01c0-9.55,7.62-16.98,16.93-16.98s16.98,7.43,16.98,16.98-7.62,16.93-16.98,16.93-16.93-7.43-16.93-16.93Zm16.93,9.64c5.36,0,9.41-4.19,9.41-9.64s-4.04-9.69-9.41-9.69-9.41,4.14-9.41,9.69,4.09,9.64,9.41,9.64Z"/>
      <path class="cls-1" d="m202.36,177.63v-31.51c0-.42.28-.71.71-.71h6.02c.42,0,.71.28.71.71v25.63h9.59c.42,0,.71.28.71.71v5.17c0,.42-.28.71-.71.71h-16.32c-.42,0-.71-.28-.71-.71Z"/>
      <path class="cls-1" d="m228.65,177.63v-31.51c0-.42.28-.71.71-.71h6.02c.42,0,.71.28.71.71v31.51c0,.42-.28.71-.71.71h-6.02c-.42,0-.71-.28-.71-.71Z"/>
      <path class="cls-1" d="m245.11,162.01c0-9.55,7.62-16.98,16.93-16.98s16.98,7.43,16.98,16.98-7.62,16.93-16.98,16.93-16.93-7.43-16.93-16.93Zm16.93,9.64c5.36,0,9.41-4.19,9.41-9.64s-4.04-9.69-9.41-9.69-9.41,4.14-9.41,9.69,4.09,9.64,9.41,9.64Z"/>
    </g>
    <g>
      <path class="cls-1" d="m7.46,33.09V7.46H1.21c-.42,0-.71-.28-.71-.71V1.58c0-.42.28-.71.71-.71h19.99c.42,0,.75.28.75.71v5.17c0,.42-.33.71-.75.71h-6.26v25.63c0,.42-.28.71-.71.71h-6.02c-.42,0-.75-.28-.75-.71Z"/>
      <path class="cls-1" d="m27.17,17.48C27.17,7.93,34.79.5,44.1.5s16.98,7.43,16.98,16.98-7.62,16.93-16.98,16.93-16.93-7.43-16.93-16.93Zm16.93,9.64c5.36,0,9.4-4.19,9.4-9.64s-4.04-9.69-9.4-9.69-9.41,4.14-9.41,9.69,4.09,9.64,9.41,9.64Z"/>
      <path class="cls-1" d="m70.06,33.09V1.58c0-.42.28-.71.71-.71h6.02c.42,0,.71.28.71.71v13.73l10.25-14.06c.24-.28.52-.38.85-.38h7.34c.61,0,.66.42.38.85l-10.86,13.69,12.18,17.54c.33.47.14.85-.42.85h-7.01c-.38,0-.61-.09-.85-.42l-8.46-12.13-3.39,4.28v7.57c0,.42-.28.71-.71.71h-6.02c-.42,0-.71-.28-.71-.71Z"/>
      <path class="cls-1" d="m112.71,33.09v-14.44L103.12,1.72c-.28-.52-.09-.85.47-.85h6.25c.38,0,.66.14.85.47l5.74,10.53,5.74-10.53c.19-.33.52-.47.89-.47h6.25c.56,0,.75.33.47.85l-9.59,16.98v14.39c0,.42-.33.71-.75.71h-6.02c-.42,0-.71-.28-.71-.71Z"/>
      <path class="cls-1" d="m133.36,17.48c0-9.55,7.62-16.98,16.93-16.98s16.98,7.43,16.98,16.98-7.62,16.93-16.98,16.93-16.93-7.43-16.93-16.93Zm16.93,9.64c5.36,0,9.4-4.19,9.4-9.64s-4.04-9.69-9.4-9.69-9.41,4.14-9.41,9.69,4.09,9.64,9.41,9.64Z"/>
    </g>
  </g>
</svg>