<svg xmlns="http://www.w3.org/2000/svg" viewBox="0 0 1401.92 290.63"><defs><style>.cls-1{fill:#fc0;}</style></defs><g id="レイヤー_2" data-name="レイヤー 2"><g id="newDesign"><rect class="cls-1" x="1111.32" y="200.65" width="50.08" height="50.08"/><rect class="cls-1" x="1090.49" y="243.65" width="27.91" height="27.91"/><rect class="cls-1" x="301.5" y="63.29" width="8.37" height="8.37"/><rect class="cls-1" x="339.91" y="81.72" width="3.89" height="64.85"/><rect class="cls-1" x="941.59" y="55.21" width="266.34" height="2.88"/><rect class="cls-1" x="26.91" width="241.35" height="2.88"/><polygon class="cls-1" points="152.94 175.44 135.5 175.44 150.5 127.49 135.5 79.54 152.94 79.54 167.94 127.49 152.94 175.44"/><polygon class="cls-1" points="185.39 175.44 167.94 175.44 182.94 127.49 167.94 79.54 185.39 79.54 200.39 127.49 185.39 175.44"/><polygon class="cls-1" points="1015.78 199.3 998.03 199.3 1013.29 150.5 998.03 101.71 1015.78 101.71 1031.05 150.5 1015.78 199.3"/><polygon class="cls-1" points="1048.8 199.3 1031.05 199.3 1046.31 150.5 1031.05 101.71 1048.8 101.71 1064.07 150.5 1048.8 199.3"/><polygon class="cls-1" points="392.82 290.63 381.19 290.63 391.19 258.68 381.19 226.73 392.82 226.73 402.81 258.68 392.82 290.63"/><path class="cls-1" d="M792.11,201.15H773.62l15.15-48.45-15.15-48.45h18.49l15.16,48.45Zm-17.13-1h16.39l14.85-47.45-14.85-47.45H775l14.84,47.45Z"/><path class="cls-1" d="M1120,201.15H1101.5l15.15-48.45-15.15-48.45H1120l15.16,48.45Zm-17.13-1h16.4l14.84-47.45-14.84-47.45h-16.4l14.84,47.45Z"/><polygon class="cls-1" points="1318.55 40.33 1318.55 25.16 1360.24 38.21 1401.92 25.16 1401.92 40.33 1360.24 53.37 1318.55 40.33"/><polygon class="cls-1" points="1318.55 68.54 1318.55 53.37 1360.24 66.42 1401.92 53.37 1401.92 68.54 1360.24 81.58 1318.55 68.54"/><path class="cls-1" d="M1358.36,142.39l-.15,0-41.31-12.93v-16l41.46,13,41.46-13v16l-.35.11Zm-40.46-13.71,40.46,12.66,40.46-12.66V114.82l-40.46,12.66-.15,0-40.31-12.62Z"/><path class="cls-1" d="M18.49,106.54H0L15.16,58.09,0,9.64H18.49L33.65,58.09Zm-17.13-1h16.4L32.6,58.09,17.76,10.64H1.36L16.21,58.09Z"/></g></g></svg>