<?xml version="1.0" encoding="UTF-8"?>
<svg id="_レイヤー_2" data-name="レイヤー 2" xmlns="http://www.w3.org/2000/svg" viewBox="0 0 1441.59 894.53">
  <defs>
    <style>
      .cls-1 {
        fill: none;
      }

      .cls-2 {
        fill: #fff6cf;
      }

      .cls-3 {
        fill: #fc0;
      }

      .cls-4 {
        fill: #565656;
      }
    </style>
  </defs>
  <g id="newDesign">
    <g>
      <rect class="cls-1" x=".45" y=".21" width="1440" height="894.32"/>
      <rect class="cls-1" x=".45" y=".21" width="1440" height="894.32"/>
      <rect class="cls-1" x="293.29" y="-252.63" width="854.32" height="1400" transform="translate(1167.83 -273.08) rotate(90)"/>
      <g>
        <rect class="cls-2" x="-253.96" y="400.28" width="885.1" height="1" transform="translate(-254.35 400.86) rotate(-64.81)"/>
        <rect class="cls-2" x="-229.63" y="361.97" width="800.43" height="1" transform="translate(-230.01 362.56) rotate(-64.81)"/>
        <rect class="cls-2" x="-216.19" y="340.81" width="753.68" height="1" transform="translate(-216.57 341.42) rotate(-64.81)"/>
        <rect class="cls-2" x="-206.42" y="325.43" width="719.71" height="1" transform="translate(-206.81 326.06) rotate(-64.81)"/>
        <rect class="cls-2" x="-201.09" y="317.04" width="701.17" height="1" transform="translate(-201.48 317.67) rotate(-64.81)"/>
      </g>
      <rect class="cls-1" x=".45" y="1.02" width="1440" height="96"/>
      <rect class="cls-3" x="134.94" y="40.05" width="31.32" height="160.38"/>
      <rect class="cls-3" x="197.59" y="100.09" width="31.32" height="160.38"/>
      <rect class="cls-3" x="993.57" y="429.91" width="45.91" height="235.06" transform="translate(1563.97 -469.09) rotate(90)"/>
      <rect class="cls-3" x="1142.9" y="488.9" width="22.96" height="140.03" transform="translate(1713.29 -595.46) rotate(90)"/>
      <rect class="cls-3" x="905.57" y="521.73" width="45.91" height="235.06" transform="translate(1567.78 -289.27) rotate(90)"/>
      <polygon class="cls-3" points="1270.62 399.16 1249.63 399.16 1267.68 341.48 1249.63 283.79 1270.62 283.79 1288.67 341.48 1270.62 399.16"/>
      <polygon class="cls-3" points="1361.86 437.37 1326.96 437.37 1356.97 341.48 1326.96 245.58 1361.86 245.58 1391.86 341.48 1361.86 437.37"/>
      <g>
        <path class="cls-4" d="m1150.24,806.54h-2.08v-1.24h5.66v1.24h-2.1v6.17h-1.48v-6.17Z"/>
        <path class="cls-4" d="m1154.9,804.74h1.47v2.01l-.07,1.05c.45-.42,1-.82,1.76-.82,1.21,0,1.73.84,1.73,2.25v3.49h-1.47v-3.31c0-.87-.24-1.17-.79-1.17-.46,0-.75.22-1.16.63v3.85h-1.47v-7.98Z"/>
        <path class="cls-4" d="m1161.3,807.11h1.2l.11.99h.03c.41-.73,1.01-1.13,1.59-1.13.31,0,.49.05.66.12l-.25,1.27c-.2-.06-.36-.09-.59-.09-.44,0-.97.29-1.28,1.1v3.34h-1.47v-5.6Z"/>
        <path class="cls-4" d="m1165.31,809.91c0-1.81,1.28-2.94,2.61-2.94,1.54,0,2.34,1.13,2.34,2.67,0,.28-.03.55-.07.68h-3.45c.12.92.72,1.4,1.55,1.4.46,0,.86-.14,1.26-.39l.5.9c-.55.38-1.26.62-1.95.62-1.57,0-2.79-1.09-2.79-2.94Zm3.69-.57c0-.75-.34-1.23-1.06-1.23-.59,0-1.11.42-1.22,1.23h2.28Z"/>
        <path class="cls-4" d="m1171.12,809.91c0-1.81,1.28-2.94,2.61-2.94,1.54,0,2.34,1.13,2.34,2.67,0,.28-.03.55-.07.68h-3.45c.12.92.72,1.4,1.55,1.4.46,0,.86-.14,1.26-.39l.5.9c-.55.38-1.26.62-1.95.62-1.57,0-2.79-1.09-2.79-2.94Zm3.69-.57c0-.75-.34-1.23-1.06-1.23-.59,0-1.11.42-1.22,1.23h2.28Z"/>
        <path class="cls-4" d="m1177.2,811.89c0-.55.39-.96.91-.96s.92.41.92.96-.39.96-.92.96-.91-.42-.91-.96Z"/>
        <path class="cls-4" d="m1179.2,814.85l.26-1.09c.15.05.3.08.47.08.47,0,.61-.32.61-.95v-5.78h1.47v5.74c0,1.2-.46,2.15-1.87,2.15-.43,0-.72-.07-.94-.15Zm1.22-9.44c0-.48.35-.8.85-.8s.86.32.86.8-.35.81-.86.81-.85-.32-.85-.81Z"/>
        <path class="cls-4" d="m1183.06,812.06l.67-.92c.5.39.98.61,1.5.61.56,0,.81-.24.81-.59,0-.42-.58-.61-1.17-.84-.71-.27-1.5-.7-1.5-1.64,0-1,.81-1.71,2.09-1.71.81,0,1.44.34,1.9.69l-.66.89c-.4-.29-.79-.48-1.2-.48-.51,0-.75.22-.75.54,0,.41.52.56,1.11.78.74.28,1.56.65,1.56,1.69,0,.98-.77,1.77-2.23,1.77-.75,0-1.57-.33-2.13-.79Z"/>
      </g>
      <g>
        <path class="cls-4" d="m596.08,805.31h2.58c1.55,0,2.78.55,2.78,2.25,0,1.11-.56,1.8-1.41,2.13l1.73,3.03h-1.65l-1.52-2.8h-1.03v2.8h-1.48v-7.41Zm2.44,3.44c.95,0,1.48-.4,1.48-1.19s-.53-1.07-1.48-1.07h-.96v2.26h.96Z"/>
        <path class="cls-4" d="m602.43,809.91c0-1.81,1.28-2.94,2.61-2.94,1.54,0,2.34,1.13,2.34,2.67,0,.28-.03.55-.07.68h-3.45c.12.92.72,1.4,1.55,1.4.46,0,.86-.14,1.26-.39l.5.9c-.55.38-1.26.62-1.95.62-1.57,0-2.79-1.09-2.79-2.94Zm3.69-.57c0-.75-.34-1.23-1.06-1.23-.59,0-1.11.42-1.22,1.23h2.28Z"/>
        <path class="cls-4" d="m608.31,811.19c0-1.2.97-1.83,3.23-2.07-.03-.55-.27-.97-.96-.97-.52,0-1.02.23-1.54.53l-.53-.97c.66-.41,1.46-.74,2.34-.74,1.42,0,2.15.85,2.15,2.47v3.27h-1.2l-.1-.6h-.04c-.49.42-1.05.74-1.69.74-1,0-1.66-.71-1.66-1.66Zm3.23-.04v-1.13c-1.37.17-1.83.55-1.83,1.05,0,.44.31.63.74.63s.73-.2,1.09-.55Z"/>
        <path class="cls-4" d="m614.15,809.91c0-1.86,1.34-2.94,2.86-2.94.69,0,1.22.27,1.63.62l-.7.95c-.28-.24-.54-.37-.85-.37-.86,0-1.44.69-1.44,1.74s.59,1.74,1.39,1.74c.4,0,.78-.19,1.09-.45l.59.97c-.54.47-1.22.68-1.84.68-1.55,0-2.73-1.08-2.73-2.94Z"/>
        <path class="cls-4" d="m619.98,810.75v-2.48h-.79v-1.09l.87-.07.17-1.51h1.22v1.51h1.38v1.16h-1.38v2.48c0,.64.26.94.76.94.18,0,.4-.06.55-.12l.24,1.07c-.3.1-.69.21-1.18.21-1.33,0-1.84-.85-1.84-2.1Z"/>
      </g>
      <g>
        <path class="cls-4" d="m689.4,805.31h1.51l2.15,3.95.74,1.6h.05c-.07-.77-.19-1.75-.19-2.59v-2.96h1.4v7.41h-1.5l-2.14-3.96-.75-1.59h-.05c.07.8.18,1.73.18,2.58v2.97h-1.4v-7.41Z"/>
        <path class="cls-4" d="m696.89,805.31h4.54v1.24h-3.06v1.71h2.6v1.24h-2.6v1.98h3.17v1.24h-4.65v-7.41Z"/>
        <path class="cls-4" d="m704.34,808.89l-1.95-3.59h1.64l.74,1.53c.18.35.33.71.55,1.17h.05c.18-.46.33-.82.49-1.17l.7-1.53h1.56l-1.95,3.66,2.08,3.75h-1.64l-.83-1.64c-.19-.38-.36-.77-.58-1.22h-.04c-.18.45-.36.84-.54,1.22l-.79,1.64h-1.57l2.08-3.82Z"/>
        <path class="cls-4" d="m710.77,806.54h-2.08v-1.24h5.66v1.24h-2.1v6.17h-1.48v-6.17Z"/>
        <path class="cls-4" d="m715.36,811.89c0-.55.39-.96.91-.96s.92.41.92.96-.39.96-.92.96-.91-.42-.91-.96Z"/>
        <path class="cls-4" d="m717.36,814.85l.26-1.09c.15.05.3.08.47.08.47,0,.61-.32.61-.95v-5.78h1.47v5.74c0,1.2-.46,2.15-1.87,2.15-.43,0-.72-.07-.94-.15Zm1.22-9.44c0-.48.35-.8.85-.8s.86.32.86.8-.35.81-.86.81-.85-.32-.85-.81Z"/>
        <path class="cls-4" d="m721.22,812.06l.67-.92c.5.39.98.61,1.5.61.56,0,.81-.24.81-.59,0-.42-.58-.61-1.17-.84-.71-.27-1.5-.7-1.5-1.64,0-1,.81-1.71,2.09-1.71.81,0,1.44.34,1.9.69l-.66.89c-.4-.29-.79-.48-1.2-.48-.51,0-.75.22-.75.54,0,.41.52.56,1.11.78.74.28,1.56.65,1.56,1.69,0,.98-.77,1.77-2.23,1.77-.75,0-1.57-.33-2.13-.79Z"/>
      </g>
      <g>
        <path class="cls-4" d="m855.89,805.31h1.64l1.26,3.47c.16.46.3.95.45,1.42h.05c.16-.47.29-.96.45-1.42l1.23-3.47h1.64v7.41h-1.35v-3.09c0-.7.11-1.73.19-2.43h-.05l-.6,1.74-1.14,3.11h-.85l-1.15-3.11-.59-1.74h-.04c.07.7.19,1.73.19,2.43v3.09h-1.33v-7.41Z"/>
        <path class="cls-4" d="m863.96,809.91c0-1.86,1.29-2.94,2.69-2.94s2.69,1.08,2.69,2.94-1.29,2.94-2.69,2.94-2.69-1.08-2.69-2.94Zm3.88,0c0-1.05-.43-1.74-1.19-1.74s-1.19.69-1.19,1.74.43,1.74,1.19,1.74,1.19-.68,1.19-1.74Z"/>
        <path class="cls-4" d="m870.25,809.91c0-1.82,1.14-2.94,2.35-2.94.63,0,1.02.24,1.42.61l-.05-.88v-1.97h1.46v7.98h-1.19l-.11-.58h-.04c-.41.4-.97.72-1.55.72-1.39,0-2.29-1.1-2.29-2.94Zm3.72,1.15v-2.46c-.34-.31-.7-.42-1.05-.42-.63,0-1.16.6-1.16,1.72s.42,1.74,1.16,1.74c.39,0,.72-.16,1.05-.58Z"/>
        <path class="cls-4" d="m876.95,810.61v-3.5h1.47v3.31c0,.86.24,1.17.78,1.17.46,0,.76-.2,1.14-.7v-3.78h1.47v5.6h-1.2l-.11-.8h-.04c-.48.57-1.02.94-1.78.94-1.21,0-1.73-.84-1.73-2.24Z"/>
        <path class="cls-4" d="m883.38,811.14v-6.41h1.47v6.47c0,.34.15.45.29.45.06,0,.1,0,.2-.02l.18,1.09c-.17.07-.41.13-.76.13-1.02,0-1.38-.67-1.38-1.71Z"/>
        <path class="cls-4" d="m886.18,809.91c0-1.81,1.28-2.94,2.61-2.94,1.54,0,2.34,1.13,2.34,2.67,0,.28-.03.55-.07.68h-3.45c.12.92.72,1.4,1.55,1.4.46,0,.86-.14,1.26-.39l.5.9c-.55.38-1.26.62-1.95.62-1.57,0-2.79-1.09-2.79-2.94Zm3.69-.57c0-.75-.34-1.23-1.06-1.23-.59,0-1.11.42-1.22,1.23h2.28Z"/>
      </g>
      <g>
        <path class="cls-4" d="m997.08,805.31h1.51l2.15,3.95.74,1.6h.05c-.07-.77-.19-1.75-.19-2.59v-2.96h1.4v7.41h-1.5l-2.14-3.96-.75-1.59h-.05c.07.8.18,1.73.18,2.58v2.97h-1.4v-7.41Z"/>
        <path class="cls-4" d="m1004.1,809.91c0-1.86,1.29-2.94,2.69-2.94s2.69,1.08,2.69,2.94-1.29,2.94-2.69,2.94-2.69-1.08-2.69-2.94Zm3.88,0c0-1.05-.43-1.74-1.19-1.74s-1.19.69-1.19,1.74.43,1.74,1.19,1.74,1.19-.68,1.19-1.74Z"/>
        <path class="cls-4" d="m1010.39,809.91c0-1.82,1.14-2.94,2.35-2.94.63,0,1.02.24,1.42.61l-.05-.88v-1.97h1.46v7.98h-1.19l-.11-.58h-.04c-.41.4-.97.72-1.55.72-1.39,0-2.29-1.1-2.29-2.94Zm3.72,1.15v-2.46c-.34-.31-.7-.42-1.05-.42-.63,0-1.16.6-1.16,1.72s.42,1.74,1.16,1.74c.39,0,.72-.16,1.05-.58Z"/>
        <path class="cls-4" d="m1016.8,809.91c0-1.81,1.28-2.94,2.61-2.94,1.54,0,2.34,1.13,2.34,2.67,0,.28-.03.55-.07.68h-3.45c.12.92.72,1.4,1.55,1.4.46,0,.86-.14,1.26-.39l.5.9c-.55.38-1.26.62-1.95.62-1.57,0-2.79-1.09-2.79-2.94Zm3.69-.57c0-.75-.34-1.23-1.06-1.23-.59,0-1.11.42-1.22,1.23h2.28Z"/>
      </g>
      <rect class="cls-3" x="1049.38" y="589.7" width="22.96" height="122.08" transform="translate(1711.6 -410.13) rotate(90)"/>
      <g>
        <path class="cls-4" d="m1373.19,134.23l.75,1.01c-.54.29-.77.68-.77,1.1,0,.65.35.99,1.37.99h4.9v1.48h-5.02c-1.39,0-2.53-.7-2.53-2.29,0-1.08.44-1.8,1.3-2.29Z"/>
        <path class="cls-4" d="m1372.97,140.1l1.02.85c-.49.53-.82,1.23-.82,1.88,0,.77.33,1.18.85,1.18.55,0,.72-.45,1-1.11l.42-.99c.31-.75.91-1.5,1.99-1.5,1.21,0,2.14,1.06,2.14,2.56,0,.86-.34,1.72-.95,2.32l-.93-.75c.39-.47.61-.96.61-1.57,0-.65-.29-1.06-.78-1.06-.53,0-.72.52-.97,1.15l-.41.97c-.37.9-.94,1.49-2.01,1.49-1.21,0-2.24-1.01-2.24-2.72,0-.99.39-1.98,1.08-2.7Z"/>
        <path class="cls-4" d="m1375.85,148.13l3.59-1.95v1.64l-1.53.74c-.35.18-.71.33-1.17.55v.05c.46.18.82.33,1.17.49l1.53.7v1.56l-3.66-1.95-3.75,2.08v-1.64l1.64-.83c.38-.19.77-.36,1.22-.58v-.04c-.45-.18-.84-.36-1.22-.54l-1.64-.79v-1.57l3.82,2.08Z"/>
      </g>
      <g>
        <path class="cls-4" d="m1375.36,276.05h4.08v1.48h-4.21c-1.54,0-2.06.54-2.06,1.4s.52,1.44,2.06,1.44h4.21v1.42h-4.08c-2.46,0-3.47-1.05-3.47-2.86s1.01-2.88,3.47-2.88Z"/>
        <path class="cls-4" d="m1379.44,283.57v1.48h-7.41v-1.48h7.41Z"/>
        <path class="cls-4" d="m1380.09,288.59v.97l-9.88-2.48v-.98l9.88,2.49Z"/>
        <path class="cls-4" d="m1375.36,290.71h4.08v1.48h-4.21c-1.54,0-2.06.54-2.06,1.4s.52,1.44,2.06,1.44h4.21v1.42h-4.08c-2.46,0-3.47-1.05-3.47-2.86s1.01-2.88,3.47-2.88Z"/>
        <path class="cls-4" d="m1375.85,299.54l3.59-1.95v1.64l-1.53.74c-.35.18-.71.33-1.17.55v.05c.46.18.82.33,1.17.49l1.53.7v1.56l-3.66-1.95-3.75,2.08v-1.64l1.64-.83c.38-.19.77-.36,1.22-.58v-.04c-.45-.18-.84-.36-1.22-.54l-1.64-.79v-1.57l3.82,2.08Z"/>
      </g>
      <g>
        <path class="cls-4" d="m1379.44,421.15v2.03c0,2.26-1.18,3.66-3.68,3.66s-3.73-1.4-3.73-3.58v-2.11h7.41Zm-6.22,1.94c0,1.38.74,2.24,2.54,2.24s2.49-.86,2.49-2.24v-.46h-5.03v.46Z"/>
        <path class="cls-4" d="m1377.63,428.17v1.47h-5.6v-1.47h5.6Zm1.71-.12c.48,0,.8.35.8.86s-.32.85-.8.85-.81-.35-.81-.85.32-.86.81-.86Z"/>
        <path class="cls-4" d="m1373.55,430.94c1.2,0,1.83.97,2.07,3.23.55-.03.97-.27.97-.96,0-.52-.23-1.02-.53-1.54l.97-.53c.41.66.74,1.46.74,2.34,0,1.42-.85,2.15-2.47,2.15h-3.27v-1.2l.6-.1v-.04c-.42-.49-.74-1.05-.74-1.69,0-1,.71-1.66,1.66-1.66Zm.04,3.23h1.13c-.17-1.37-.55-1.83-1.05-1.83-.44,0-.63.31-.63.74s.2.73.55,1.09Z"/>
        <path class="cls-4" d="m1373.6,437.12h6.41v1.47h-6.47c-.34,0-.45.15-.45.29,0,.06,0,.1.02.2l-1.09.18c-.07-.17-.13-.41-.13-.76,0-1.02.67-1.38,1.71-1.38Z"/>
        <path class="cls-4" d="m1374.83,439.92c1.86,0,2.94,1.29,2.94,2.69s-1.08,2.69-2.94,2.69-2.94-1.29-2.94-2.69,1.08-2.69,2.94-2.69Zm0,3.88c1.05,0,1.74-.43,1.74-1.19s-.69-1.19-1.74-1.19-1.74.43-1.74,1.19.68,1.19,1.74,1.19Z"/>
        <path class="cls-4" d="m1371.04,446.16c.47,0,.87.29,1.16.8h.05c.19-.29.48-.51.94-.51.42,0,.81.29,1.05.63h.04c.28-.39.81-.75,1.47-.75,1.31,0,2.02,1.07,2.02,2.26,0,.31-.06.61-.14.84v2.02h-1.08v-.95c-.19.14-.5.25-.85.25-1.26,0-1.9-.96-1.9-2.16,0-.22.05-.48.13-.72-.13-.15-.25-.24-.48-.24-.3,0-.46.22-.46.88v.95c0,1.35-.42,2.09-1.4,2.09-1.13,0-1.99-1.18-1.99-3.05,0-1.32.45-2.34,1.44-2.34Zm.3,3.98c.4,0,.5-.33.5-.93v-.68c0-.34.03-.58.08-.78-.2-.25-.42-.36-.65-.36-.47,0-.74.52-.74,1.33s.37,1.42.81,1.42Zm4.41-.67c.65,0,1.02-.38,1.02-.88s-.37-.88-1.02-.88-1.04.39-1.04.88.37.88,1.04.88Z"/>
        <path class="cls-4" d="m1373.6,456.22h6.41v1.46h-6.47c-.34,0-.45.16-.45.29,0,.06,0,.11.02.2l-1.09.18c-.07-.16-.13-.4-.13-.75,0-1.03.67-1.38,1.71-1.38Zm2.87-3.47v-.75h1.09l.06.75h.46c1.17,0,2.07.54,2.07,1.95,0,.43-.1.81-.19,1.06l-1.09-.27c.08-.19.12-.41.12-.59,0-.44-.26-.68-.88-.68h-.48v1.05h-1.16v-1.05h-4.44v-1.47h4.44Z"/>
        <path class="cls-4" d="m1374.83,459.02c1.86,0,2.94,1.29,2.94,2.69s-1.08,2.69-2.94,2.69-2.94-1.29-2.94-2.69,1.08-2.69,2.94-2.69Zm0,3.88c1.05,0,1.74-.43,1.74-1.19s-.69-1.19-1.74-1.19-1.74.43-1.74,1.19.68,1.19,1.74,1.19Z"/>
        <path class="cls-4" d="m1377.63,465.11v1.47l-2.76.61c-.55.11-1.08.18-1.64.28v.04c.56.11,1.1.21,1.64.35l2.76.68v1.3l-2.76.7c-.55.13-1.08.23-1.64.35v.05c.56.1,1.09.18,1.64.28l2.76.61v1.36l-5.6-1.38v-1.73l2.44-.59c.53-.12,1.04-.21,1.63-.32v-.05c-.59-.11-1.11-.19-1.63-.31l-2.44-.57v-1.68l5.6-1.45Z"/>
      </g>
      <g>
        <path d="m1367.2,567.06l1.84,1.53c-.88.95-1.48,2.21-1.48,3.38,0,1.39.59,2.12,1.53,2.12.99,0,1.3-.81,1.8-2l.76-1.78c.56-1.35,1.64-2.7,3.58-2.7,2.18,0,3.85,1.91,3.85,4.61,0,1.55-.61,3.1-1.71,4.18l-1.67-1.35c.7-.85,1.1-1.73,1.1-2.83,0-1.17-.52-1.91-1.4-1.91-.95,0-1.3.94-1.75,2.07l-.74,1.75c-.67,1.62-1.69,2.68-3.62,2.68-2.18,0-4.03-1.82-4.03-4.9,0-1.78.7-3.57,1.94-4.86Z"/>
        <path d="m1372.11,578.5c4.39,0,6.97,2.83,6.97,6.19,0,1.69-.81,3.04-1.71,3.91l-1.69-1.39c.65-.68,1.12-1.46,1.12-2.47,0-2.02-1.73-3.53-4.59-3.53s-4.65,1.37-4.65,3.48c0,1.15.54,2.03,1.31,2.75l-1.66,1.4c-1.28-1.1-1.96-2.52-1.96-4.25,0-3.37,2.41-6.1,6.86-6.1Z"/>
        <path d="m1378.85,591v4.64c0,2.79-.99,5.01-4.05,5.01-2,0-3.24-1.01-3.83-2.54l-5.46,3.12v-2.97l5.04-2.74v-1.85h-5.04v-2.66h13.34Zm-6.19,4.39c0,1.71.72,2.67,2.14,2.67s1.93-.95,1.93-2.67v-1.73h-4.07v1.73Z"/>
        <path d="m1372.22,602.61c4.34,0,6.86,2.43,6.86,5.96s-2.54,5.96-6.86,5.96-6.97-2.43-6.97-5.96,2.65-5.96,6.97-5.96Zm0,9.2c2.86,0,4.57-1.26,4.57-3.24s-1.71-3.24-4.57-3.24-4.66,1.26-4.66,3.24,1.82,3.24,4.66,3.24Z"/>
        <path d="m1378.85,617.13v2.66h-11.11v5.42h-2.23v-8.08h13.34Z"/>
        <path d="m1378.85,627.54v2.67h-11.11v5.42h-2.23v-8.08h13.34Z"/>
        <path d="m1378.85,650.2v3.65c0,4.07-2.12,6.59-6.63,6.59s-6.72-2.52-6.72-6.45v-3.8h13.34Zm-11.2,3.49c0,2.49,1.33,4.03,4.57,4.03s4.48-1.55,4.48-4.03v-.83h-9.06v.83Z"/>
        <path d="m1372.22,662.38c4.34,0,6.86,2.43,6.86,5.96s-2.54,5.96-6.86,5.96-6.97-2.43-6.97-5.96,2.65-5.96,6.97-5.96Zm0,9.2c2.86,0,4.57-1.26,4.57-3.24s-1.71-3.24-4.57-3.24-4.66,1.26-4.66,3.24,1.82,3.24,4.66,3.24Z"/>
        <path d="m1378.85,675.61v2.7l-6.52,1.06c-1.4.2-2.81.41-4.25.61v.07c1.44.27,2.86.56,4.25.85l6.52,1.55v2.29l-6.52,1.53c-1.37.29-2.81.56-4.25.85v.09c1.44.2,2.86.4,4.25.59l6.52,1.06v2.52l-13.34-2.47v-3.31l6.59-1.49c1.04-.22,2.07-.41,3.1-.58v-.07c-1.03-.18-2.05-.36-3.1-.58l-6.59-1.46v-3.26l13.34-2.56Z"/>
        <path d="m1378.85,693.38v2.72l-7.11,3.87-2.88,1.33v.09c1.39-.13,3.15-.34,4.66-.34h5.33v2.52h-13.34v-2.7l7.13-3.85,2.86-1.35v-.09c-1.44.13-3.12.32-4.65.32h-5.35v-2.52h13.34Z"/>
      </g>
      <rect class="cls-3" x="889.92" y="371.79" width="8.24" height="8.24"/>
      <rect class="cls-3" x="910.49" y="371.79" width="8.24" height="8.24"/>
      <rect class="cls-3" x="931.05" y="371.79" width="8.24" height="8.24"/>
      <g>
        <rect class="cls-3" x="530.48" y="373.21" width="5.4" height="5.4"/>
        <rect class="cls-3" x="543.94" y="373.21" width="5.4" height="5.4"/>
        <rect class="cls-3" x="557.4" y="373.21" width="5.4" height="5.4"/>
      </g>
      <rect class="cls-3" x="287.68" y="751.98" width="10.7" height="10.7"/>
      <rect class="cls-3" x="314.39" y="751.98" width="10.7" height="10.7"/>
      <rect class="cls-3" x="341.09" y="751.98" width="10.7" height="10.7"/>
      <polygon points="1372.03 761.26 1363.24 750.65 1364.01 750.01 1372.03 759.69 1380.06 750.01 1380.83 750.65 1372.03 761.26"/>
      <rect class="cls-3" x="180.9" y="806.95" width="307.6" height="5.76"/>
      <rect class="cls-3" x="75.26" y="536.32" width="268.17" height="5.76" transform="translate(-329.85 748.55) rotate(-90)"/>
      <rect class="cls-3" x="1096.7" y="105.21" width="344.89" height="5.76"/>
      <rect class="cls-3" x="20.45" y="243.75" width="232.15" height="3.93"/>
      <rect class="cls-3" x="255.19" y="482.78" width="26" height="26"/>
      <rect class="cls-3" x="398.32" y="412.92" width="14.64" height="14.64"/>
      <rect class="cls-3" x="373.04" y="608.08" width="16.44" height="16.44"/>
      <rect class="cls-3" x="1.47" y="505.35" width="156.57" height="1"/>
      <rect class="cls-3" x="157.53" y="518.45" width="1" height="156.57"/>
      <rect class="cls-3" x="-13.11" y="609.22" width="125.44" height="5.13" transform="translate(-418.07 214.27) rotate(-45)"/>
      <rect class="cls-3" x="52.67" y="809.83" width="307.6" height="2.88"/>
    </g>
  </g>
</svg>