<svg xmlns="http://www.w3.org/2000/svg" viewBox="0 0 1441.59 894.53"><defs><style>.cls-1{fill:#eceae2;}.cls-2{fill:#fff6cf;}.cls-3{fill:none;}.cls-4{fill:#fc0;}.cls-5{fill:#565656;}</style></defs><g id="レイヤー_2" data-name="レイヤー 2"><g id="newDesign"><rect class="cls-1" x="0.45" y="0.21" width="1440" height="894.32"/><rect class="cls-1" x="0.45" y="0.21" width="1440" height="894.32"/><rect class="cls-1" x="293.29" y="-252.63" width="854.32" height="1400" transform="translate(1167.83 -273.08) rotate(90)"/><rect class="cls-2" x="-253.96" y="400.28" width="885.1" height="1" transform="translate(-254.35 400.86) rotate(-64.81)"/><rect class="cls-2" x="-229.63" y="361.97" width="800.43" height="1" transform="translate(-230.01 362.56) rotate(-64.81)"/><rect class="cls-2" x="-216.19" y="340.81" width="753.68" height="1" transform="translate(-216.57 341.42) rotate(-64.81)"/><rect class="cls-2" x="-206.42" y="325.43" width="719.71" height="1" transform="translate(-206.81 326.06) rotate(-64.81)"/><rect class="cls-2" x="-201.09" y="317.04" width="701.17" height="1" transform="translate(-201.48 317.67) rotate(-64.81)"/><rect class="cls-3" x="0.45" y="1.02" width="1440" height="96"/><rect class="cls-4" x="134.94" y="40.05" width="31.32" height="160.38"/><rect class="cls-4" x="197.59" y="100.09" width="31.32" height="160.38"/><rect class="cls-4" x="993.57" y="429.91" width="45.91" height="235.06" transform="translate(1563.97 -469.09) rotate(90)"/><rect class="cls-4" x="1142.9" y="488.9" width="22.96" height="140.03" transform="translate(1713.29 -595.46) rotate(90)"/><rect class="cls-4" x="905.57" y="521.73" width="45.91" height="235.06" transform="translate(1567.78 -289.27) rotate(90)"/><polygon class="cls-4" points="1270.62 399.16 1249.63 399.16 1267.68 341.48 1249.63 283.79 1270.62 283.79 1288.67 341.48 1270.62 399.16"/><polygon class="cls-4" points="1361.86 437.37 1326.96 437.37 1356.97 341.48 1326.96 245.58 1361.86 245.58 1391.86 341.48 1361.86 437.37"/><path class="cls-5" d="M1150.24,806.54h-2.08v-1.23h5.66v1.23h-2.1v6.17h-1.48Z"/><path class="cls-5" d="M1154.9,804.74h1.47v2l-.07,1a2.55,2.55,0,0,1,1.76-.82c1.21,0,1.73.84,1.73,2.25v3.49h-1.47V809.4c0-.87-.24-1.17-.79-1.17a1.57,1.57,0,0,0-1.16.63v3.85h-1.47Z"/><path class="cls-5" d="M1161.3,807.11h1.2l.11,1h0a1.94,1.94,0,0,1,1.59-1.13,1.58,1.58,0,0,1,.66.12l-.25,1.27a1.87,1.87,0,0,0-.59-.09c-.44,0-1,.29-1.28,1.1v3.34h-1.47Z"/><path class="cls-5" d="M1165.31,809.91a2.74,2.74,0,0,1,2.61-2.94c1.54,0,2.34,1.13,2.34,2.67a2.76,2.76,0,0,1-.07.68h-3.45a1.47,1.47,0,0,0,1.55,1.4,2.31,2.31,0,0,0,1.26-.39l.5.9a3.53,3.53,0,0,1-2,.62A2.72,2.72,0,0,1,1165.31,809.91Zm3.69-.57c0-.75-.34-1.23-1.06-1.23a1.26,1.26,0,0,0-1.22,1.23Z"/><path class="cls-5" d="M1171.12,809.91a2.74,2.74,0,0,1,2.61-2.94c1.54,0,2.34,1.13,2.34,2.67a2.76,2.76,0,0,1-.07.68h-3.45a1.47,1.47,0,0,0,1.55,1.4,2.31,2.31,0,0,0,1.26-.39l.5.9a3.53,3.53,0,0,1-1.95.62A2.72,2.72,0,0,1,1171.12,809.91Zm3.69-.57c0-.75-.34-1.23-1.06-1.23a1.26,1.26,0,0,0-1.22,1.23Z"/><path class="cls-5" d="M1177.2,811.89a.92.92,0,1,1,.91,1A.91.91,0,0,1,1177.2,811.89Z"/><path class="cls-5" d="M1179.2,814.85l.26-1.09a1.45,1.45,0,0,0,.47.08c.47,0,.61-.32.61-1v-5.78H1182v5.74c0,1.2-.46,2.15-1.87,2.15A2.65,2.65,0,0,1,1179.2,814.85Zm1.22-9.44a.86.86,0,1,1,.85.81A.79.79,0,0,1,1180.42,805.41Z"/><path class="cls-5" d="M1183.06,812.06l.67-.92a2.43,2.43,0,0,0,1.5.61c.56,0,.81-.24.81-.59s-.58-.61-1.17-.84-1.5-.7-1.5-1.64.81-1.71,2.09-1.71a3.1,3.1,0,0,1,1.9.69l-.66.89a2.08,2.08,0,0,0-1.2-.48c-.51,0-.75.22-.75.54s.52.56,1.11.78c.74.28,1.56.65,1.56,1.69s-.77,1.77-2.23,1.77A3.55,3.55,0,0,1,1183.06,812.06Z"/><path class="cls-5" d="M596.08,805.31h2.58c1.55,0,2.78.54,2.78,2.24a2.12,2.12,0,0,1-1.41,2.13l1.73,3h-1.65l-1.52-2.8h-1v2.8h-1.48Zm2.44,3.43c1,0,1.48-.4,1.48-1.19s-.53-1.07-1.48-1.07h-1v2.26Z"/><path class="cls-5" d="M602.43,809.91A2.74,2.74,0,0,1,605,807c1.54,0,2.34,1.13,2.34,2.67a2.76,2.76,0,0,1-.07.68h-3.45a1.47,1.47,0,0,0,1.55,1.4,2.31,2.31,0,0,0,1.26-.39l.5.9a3.53,3.53,0,0,1-1.95.62A2.72,2.72,0,0,1,602.43,809.91Zm3.69-.57c0-.75-.34-1.23-1.06-1.23a1.26,1.26,0,0,0-1.22,1.23Z"/><path class="cls-5" d="M608.31,811.19c0-1.2,1-1.83,3.23-2.07,0-.55-.27-1-1-1a3.16,3.16,0,0,0-1.54.53l-.53-1a4.47,4.47,0,0,1,2.34-.74c1.42,0,2.15.85,2.15,2.47v3.27h-1.2l-.1-.6h0a2.63,2.63,0,0,1-1.69.74A1.59,1.59,0,0,1,608.31,811.19Zm3.23,0V810c-1.37.17-1.83.55-1.83,1.05s.31.63.74.63A1.52,1.52,0,0,0,611.54,811.15Z"/><path class="cls-5" d="M614.15,809.91A2.79,2.79,0,0,1,617,807a2.45,2.45,0,0,1,1.63.62l-.7.95a1.27,1.27,0,0,0-.85-.37c-.86,0-1.44.69-1.44,1.74s.59,1.74,1.39,1.74a1.74,1.74,0,0,0,1.09-.45l.59,1a2.82,2.82,0,0,1-1.84.68A2.68,2.68,0,0,1,614.15,809.91Z"/><path class="cls-5" d="M620,810.75v-2.48h-.79v-1.09l.87-.07.17-1.51h1.22v1.51h1.38v1.16h-1.38v2.48c0,.64.26.94.76.94a1.64,1.64,0,0,0,.55-.12l.24,1.07a3.62,3.62,0,0,1-1.18.21C620.49,812.85,620,812,620,810.75Z"/><path class="cls-5" d="M689.4,805.31h1.5l2.15,3.94.74,1.6h.05c-.07-.77-.19-1.75-.19-2.59v-3h1.4v7.4h-1.5l-2.14-4-.74-1.59h0c.07.8.17,1.73.17,2.58v3H689.4Z"/><path class="cls-5" d="M696.89,805.31h4.53v1.23h-3.06v1.71H701v1.24h-2.6v2h3.17v1.24h-4.64Z"/><path class="cls-5" d="M704.34,808.89l-1.94-3.58H704l.73,1.52c.18.35.33.71.55,1.17h0c.18-.46.33-.82.49-1.17l.7-1.52h1.56l-2,3.65,2.08,3.75h-1.64l-.83-1.64c-.19-.38-.36-.77-.58-1.22h0c-.18.45-.36.84-.54,1.22l-.79,1.64h-1.56Z"/><path class="cls-5" d="M710.77,806.54H708.7v-1.23h5.65v1.23h-2.1v6.17h-1.48Z"/><path class="cls-5" d="M715.36,811.89a.91.91,0,1,1,.91,1A.91.91,0,0,1,715.36,811.89Z"/><path class="cls-5" d="M717.36,814.85l.26-1.09a1.45,1.45,0,0,0,.47.08c.47,0,.61-.32.61-1v-5.78h1.46v5.74c0,1.2-.45,2.15-1.86,2.15A2.65,2.65,0,0,1,717.36,814.85Zm1.22-9.44a.85.85,0,1,1,.85.81A.79.79,0,0,1,718.58,805.41Z"/><path class="cls-5" d="M721.22,812.06l.67-.92a2.43,2.43,0,0,0,1.49.61c.56,0,.81-.24.81-.59s-.58-.61-1.17-.84-1.49-.7-1.49-1.64.81-1.71,2.08-1.71a3.1,3.1,0,0,1,1.9.69l-.66.89a2.08,2.08,0,0,0-1.2-.48c-.5,0-.75.22-.75.54s.52.56,1.11.78,1.56.65,1.56,1.69-.77,1.77-2.23,1.77A3.55,3.55,0,0,1,721.22,812.06Z"/><path class="cls-5" d="M855.89,805.31h1.64l1.26,3.46c.16.46.3,1,.45,1.42h0c.16-.47.29-1,.45-1.42l1.23-3.46h1.64v7.4h-1.35v-3.09c0-.7.11-1.73.19-2.43h-.05l-.6,1.74L859.66,812h-.85l-1.15-3.11-.59-1.74h0c.07.7.19,1.73.19,2.43v3.09h-1.33Z"/><path class="cls-5" d="M864,809.91a2.7,2.7,0,1,1,2.69,2.94A2.73,2.73,0,0,1,864,809.91Zm3.88,0c0-1-.43-1.74-1.19-1.74s-1.19.69-1.19,1.74.43,1.74,1.19,1.74S867.84,811,867.84,809.91Z"/><path class="cls-5" d="M870.25,809.91c0-1.82,1.14-2.94,2.35-2.94a1.93,1.93,0,0,1,1.42.61l0-.88v-2h1.46v8h-1.19l-.11-.58h0a2.32,2.32,0,0,1-1.55.72C871.15,812.85,870.25,811.75,870.25,809.91Zm3.72,1.15V808.6a1.51,1.51,0,0,0-1.05-.42c-.63,0-1.16.6-1.16,1.72s.42,1.74,1.16,1.74A1.27,1.27,0,0,0,874,811.06Z"/><path class="cls-5" d="M877,810.61v-3.5h1.47v3.31c0,.86.24,1.17.78,1.17a1.35,1.35,0,0,0,1.14-.7v-3.78h1.47v5.6h-1.2l-.11-.8h0a2.25,2.25,0,0,1-1.78.94C877.47,812.85,877,812,877,810.61Z"/><path class="cls-5" d="M883.38,811.14v-6.4h1.47v6.46c0,.34.15.45.29.45l.2,0,.18,1.09a2,2,0,0,1-.76.13C883.74,812.85,883.38,812.18,883.38,811.14Z"/><path class="cls-5" d="M886.18,809.91a2.74,2.74,0,0,1,2.61-2.94c1.54,0,2.34,1.13,2.34,2.67a2.76,2.76,0,0,1-.07.68h-3.45a1.47,1.47,0,0,0,1.55,1.4,2.31,2.31,0,0,0,1.26-.39l.5.9a3.53,3.53,0,0,1-1.95.62A2.72,2.72,0,0,1,886.18,809.91Zm3.69-.57c0-.75-.34-1.23-1.06-1.23a1.26,1.26,0,0,0-1.22,1.23Z"/><path class="cls-5" d="M997.08,805.31h1.51l2.14,3.94.74,1.6h0c-.07-.77-.19-1.75-.19-2.59v-3h1.4v7.4h-1.5l-2.13-4-.75-1.59h-.05c.07.8.18,1.73.18,2.58v3h-1.4Z"/><path class="cls-5" d="M1004.1,809.91a2.7,2.7,0,1,1,2.68,2.94A2.73,2.73,0,0,1,1004.1,809.91Zm3.87,0c0-1-.43-1.74-1.19-1.74s-1.18.69-1.18,1.74.42,1.74,1.18,1.74S1008,811,1008,809.91Z"/><path class="cls-5" d="M1010.39,809.91c0-1.82,1.13-2.94,2.34-2.94a1.93,1.93,0,0,1,1.42.61l0-.88v-2h1.46v8h-1.19l-.11-.58h0a2.32,2.32,0,0,1-1.55.72C1011.29,812.85,1010.39,811.75,1010.39,809.91Zm3.71,1.15V808.6a1.51,1.51,0,0,0-1.05-.42c-.62,0-1.15.6-1.15,1.72s.41,1.74,1.15,1.74A1.27,1.27,0,0,0,1014.1,811.06Z"/><path class="cls-5" d="M1016.8,809.91a2.74,2.74,0,0,1,2.6-2.94c1.54,0,2.34,1.13,2.34,2.67a2.76,2.76,0,0,1-.07.68h-3.44a1.46,1.46,0,0,0,1.54,1.4,2.31,2.31,0,0,0,1.26-.39l.5.9a3.53,3.53,0,0,1-1.95.62A2.72,2.72,0,0,1,1016.8,809.91Zm3.68-.57c0-.75-.34-1.23-1.06-1.23a1.25,1.25,0,0,0-1.21,1.23Z"/><rect class="cls-4" x="1049.38" y="589.7" width="22.96" height="122.08" transform="translate(1711.6 -410.13) rotate(90)"/><path class="cls-5" d="M1373.19,134.23l.75,1a1.25,1.25,0,0,0-.77,1.1c0,.65.35,1,1.37,1h4.9v1.48h-5a2.23,2.23,0,0,1-2.53-2.29A2.4,2.4,0,0,1,1373.19,134.23Z"/><path class="cls-5" d="M1373,140.1l1,.84a2.91,2.91,0,0,0-.82,1.88c0,.77.33,1.18.85,1.18s.72-.45,1-1.11l.42-1a2.14,2.14,0,0,1,2-1.5,2.31,2.31,0,0,1,2.14,2.56,3.28,3.28,0,0,1-1,2.32l-.93-.75a2.36,2.36,0,0,0,.61-1.57c0-.65-.29-1.06-.78-1.06s-.72.52-1,1.15l-.41,1a2,2,0,0,1-2,1.49c-1.21,0-2.24-1-2.24-2.72A3.9,3.9,0,0,1,1373,140.1Z"/><path class="cls-5" d="M1375.85,148.13l3.59-1.94v1.63l-1.53.74c-.35.18-.71.33-1.17.55v0c.46.18.82.33,1.17.49l1.53.7v1.56l-3.66-1.95L1372,152V150.4l1.64-.83,1.22-.58v0c-.45-.18-.84-.36-1.22-.54l-1.64-.79v-1.56Z"/><path class="cls-5" d="M1375.36,276.05h4.08v1.48h-4.21c-1.54,0-2.06.54-2.06,1.4s.52,1.43,2.06,1.43h4.21v1.42h-4.08c-2.46,0-3.47-1-3.47-2.85S1372.9,276.05,1375.36,276.05Z"/><path class="cls-5" d="M1379.44,283.57v1.48H1372v-1.48Z"/><path class="cls-5" d="M1380.09,288.59v1l-9.88-2.48v-1Z"/><path class="cls-5" d="M1375.36,290.71h4.08v1.48h-4.21c-1.54,0-2.06.54-2.06,1.4s.52,1.43,2.06,1.43h4.21v1.42h-4.08c-2.46,0-3.47-1-3.47-2.85S1372.9,290.71,1375.36,290.71Z"/><path class="cls-5" d="M1375.85,299.54l3.59-2v1.64l-1.53.74c-.35.18-.71.33-1.17.55v.05c.46.18.82.33,1.17.49l1.53.7v1.55l-3.66-1.94-3.75,2.07v-1.63l1.64-.83,1.22-.58v0c-.45-.18-.84-.36-1.22-.54L1372,299v-1.57Z"/><path class="cls-5" d="M1379.44,421.15v2c0,2.26-1.18,3.66-3.68,3.66s-3.73-1.4-3.73-3.58v-2.11Zm-6.22,1.94c0,1.38.74,2.24,2.54,2.24s2.49-.86,2.49-2.24v-.46h-5Z"/><path class="cls-5" d="M1377.63,428.17v1.47H1372v-1.47Zm1.71-.12a.86.86,0,1,1-.81.86A.79.79,0,0,1,1379.34,428.05Z"/><path class="cls-5" d="M1373.55,430.94c1.2,0,1.83,1,2.07,3.22.55,0,1-.27,1-1a3.16,3.16,0,0,0-.53-1.54l1-.53a4.47,4.47,0,0,1,.74,2.34c0,1.42-.85,2.15-2.47,2.15H1372v-1.2l.6-.1v0a2.63,2.63,0,0,1-.74-1.69A1.58,1.58,0,0,1,1373.55,430.94Zm0,3.22h1.13c-.17-1.37-.55-1.83-1-1.83s-.63.31-.63.74A1.52,1.52,0,0,0,1373.59,434.16Z"/><path class="cls-5" d="M1373.6,437.12H1380v1.47h-6.47c-.34,0-.45.15-.45.29a.83.83,0,0,0,0,.2l-1.09.18a2,2,0,0,1-.13-.76C1371.89,437.48,1372.56,437.12,1373.6,437.12Z"/><path class="cls-5" d="M1374.83,439.92a2.7,2.7,0,1,1-2.94,2.69A2.73,2.73,0,0,1,1374.83,439.92Zm0,3.88c1.05,0,1.74-.43,1.74-1.19s-.69-1.19-1.74-1.19-1.74.43-1.74,1.19S1373.77,443.8,1374.83,443.8Z"/><path class="cls-5" d="M1371,446.16a1.36,1.36,0,0,1,1.16.8h0a1.06,1.06,0,0,1,.94-.51,1.37,1.37,0,0,1,1,.63h0a1.83,1.83,0,0,1,1.47-.75,2.06,2.06,0,0,1,2,2.26,2.63,2.63,0,0,1-.14.84v2h-1.08v-.95a1.48,1.48,0,0,1-.85.25,1.91,1.91,0,0,1-1.9-2.16,2.38,2.38,0,0,1,.13-.72.57.57,0,0,0-.48-.24c-.3,0-.46.22-.46.88v.95c0,1.35-.42,2.09-1.4,2.09s-2-1.18-2-3.05C1369.6,447.18,1370.06,446.16,1371,446.16Zm.3,4c.4,0,.5-.33.5-.93v-.68a3.16,3.16,0,0,1,.08-.78.83.83,0,0,0-.65-.36c-.47,0-.74.52-.74,1.33S1370.9,450.14,1371.34,450.14Zm4.41-.67a.89.89,0,1,0,0-1.76c-.67,0-1,.39-1,.88S1375.08,449.47,1375.75,449.47Z"/><path class="cls-5" d="M1373.6,456.22H1380v1.46h-6.47c-.34,0-.45.16-.45.29a.79.79,0,0,0,0,.2l-1.09.18a1.87,1.87,0,0,1-.13-.75C1371.89,456.57,1372.56,456.22,1373.6,456.22Zm2.87-3.47V452h1.09l.06.75h.46a1.82,1.82,0,0,1,2.07,1.95,3.19,3.19,0,0,1-.19,1.06l-1.09-.27a1.59,1.59,0,0,0,.12-.59c0-.44-.26-.68-.88-.68h-.48v1h-1.16v-1H1372v-1.47Z"/><path class="cls-5" d="M1374.83,459a2.7,2.7,0,1,1-2.94,2.69A2.73,2.73,0,0,1,1374.83,459Zm0,3.88c1.05,0,1.74-.43,1.74-1.19s-.69-1.19-1.74-1.19-1.74.43-1.74,1.19S1373.77,462.9,1374.83,462.9Z"/><path class="cls-5" d="M1377.63,465.11v1.47l-2.76.61c-.55.11-1.08.18-1.64.28v0c.56.11,1.1.21,1.64.35l2.76.68v1.3l-2.76.7c-.55.13-1.08.23-1.64.35v.05l1.64.28,2.76.61v1.36l-5.6-1.38v-1.73l2.44-.59c.53-.12,1-.21,1.63-.32v-.05c-.59-.11-1.11-.19-1.63-.31l-2.44-.57v-1.68Z"/><path d="M1367.2,567.06l1.83,1.53a5.22,5.22,0,0,0-1.47,3.38c0,1.39.59,2.13,1.53,2.13s1.29-.81,1.8-2l.75-1.78a3.87,3.87,0,0,1,3.59-2.71c2.18,0,3.85,1.91,3.85,4.61a5.91,5.91,0,0,1-1.71,4.18l-1.67-1.35a4.26,4.26,0,0,0,1.09-2.83c0-1.17-.52-1.9-1.4-1.9s-1.3.93-1.75,2.07l-.74,1.74a3.68,3.68,0,0,1-3.61,2.69c-2.18,0-4-1.82-4-4.9A7.06,7.06,0,0,1,1367.2,567.06Z"/><path d="M1372.11,578.5c4.4,0,7,2.83,7,6.2a5.46,5.46,0,0,1-1.71,3.91l-1.69-1.39a3.49,3.49,0,0,0,1.11-2.47c0-2-1.73-3.53-4.59-3.53s-4.64,1.37-4.64,3.48a3.68,3.68,0,0,0,1.31,2.75l-1.65,1.41a5.4,5.4,0,0,1-2-4.25C1365.25,581.24,1367.66,578.5,1372.11,578.5Z"/><path d="M1378.85,591v4.64c0,2.79-1,5-4,5a3.82,3.82,0,0,1-3.84-2.54l-5.46,3.11v-3l5-2.73v-1.86h-5V591Zm-6.2,4.39c0,1.71.72,2.67,2.15,2.67s1.92-1,1.92-2.67v-1.73h-4.07Z"/><path d="M1372.22,602.61c4.34,0,6.86,2.43,6.86,6s-2.54,6-6.86,6-7-2.43-7-6S1367.9,602.61,1372.22,602.61Zm0,9.2c2.86,0,4.57-1.26,4.57-3.24s-1.71-3.24-4.57-3.24-4.66,1.26-4.66,3.24S1369.38,611.81,1372.22,611.81Z"/><path d="M1378.85,617.13v2.67h-11.11v5.42h-2.24v-8.09Z"/><path d="M1378.85,627.54v2.66h-11.11v5.42h-2.24v-8.08Z"/><path d="M1378.85,650.2v3.65c0,4.07-2.13,6.59-6.63,6.59s-6.72-2.52-6.72-6.44v-3.8Zm-11.2,3.49c0,2.49,1.33,4,4.57,4s4.48-1.54,4.48-4v-.83h-9Z"/><path d="M1372.22,662.38c4.34,0,6.86,2.43,6.86,6s-2.54,6-6.86,6-7-2.43-7-6S1367.9,662.38,1372.22,662.38Zm0,9.2c2.86,0,4.57-1.26,4.57-3.24s-1.71-3.24-4.57-3.24-4.66,1.26-4.66,3.24S1369.38,671.58,1372.22,671.58Z"/><path d="M1378.85,675.61v2.7l-6.52,1.07c-1.41.19-2.81.41-4.25.61v.07c1.44.27,2.86.56,4.25.85l6.52,1.55v2.28l-6.52,1.53c-1.37.29-2.81.56-4.25.85v.09l4.25.59,6.52,1.07v2.52l-13.35-2.47v-3.31l6.59-1.5c1.05-.21,2.07-.41,3.1-.57v-.08c-1-.18-2-.36-3.1-.57l-6.59-1.46v-3.26Z"/><path d="M1378.85,693.38v2.72l-7.12,3.87-2.88,1.33v.09c1.39-.12,3.15-.34,4.67-.34h5.33v2.52H1365.5v-2.7l7.13-3.85,2.87-1.35v-.09c-1.44.12-3.12.32-4.65.32h-5.35v-2.52Z"/><rect class="cls-4" x="889.92" y="371.79" width="8.24" height="8.24"/><rect class="cls-4" x="910.49" y="371.79" width="8.24" height="8.24"/><rect class="cls-4" x="931.05" y="371.79" width="8.24" height="8.24"/><rect class="cls-4" x="530.48" y="373.21" width="5.4" height="5.4"/><rect class="cls-4" x="543.94" y="373.21" width="5.4" height="5.4"/><rect class="cls-4" x="557.4" y="373.21" width="5.4" height="5.4"/><rect class="cls-4" x="287.68" y="751.98" width="10.7" height="10.7"/><rect class="cls-4" x="314.39" y="751.98" width="10.7" height="10.7"/><rect class="cls-4" x="341.09" y="751.98" width="10.7" height="10.7"/><polygon points="1372.03 761.26 1363.24 750.65 1364.01 750.01 1372.03 759.7 1380.06 750.01 1380.83 750.65 1372.03 761.26"/><rect class="cls-4" x="180.9" y="806.95" width="307.6" height="5.76"/><rect class="cls-4" x="75.26" y="536.32" width="268.17" height="5.76" transform="translate(-329.85 748.55) rotate(-90)"/><rect class="cls-4" x="1096.7" y="105.21" width="344.89" height="5.76"/><rect class="cls-4" x="20.45" y="243.75" width="232.15" height="3.93"/><rect class="cls-4" x="255.19" y="482.78" width="26" height="26"/><rect class="cls-4" x="398.32" y="412.92" width="14.64" height="14.64"/><rect class="cls-4" x="373.04" y="608.08" width="16.44" height="16.44"/><rect class="cls-4" x="1.47" y="505.35" width="156.57" height="1"/><rect class="cls-4" x="157.53" y="518.45" width="1" height="156.57"/><rect class="cls-4" x="-13.11" y="609.22" width="125.44" height="5.13" transform="translate(-418.07 214.27) rotate(-45)"/><rect class="cls-4" x="52.67" y="809.83" width="307.6" height="2.88"/><path d="M219.53,611.19a6.31,6.31,0,0,1-1.11,1.93,5.36,5.36,0,0,1-1.77,1.27,4.8,4.8,0,0,1-2.3.18,12.76,12.76,0,0,1-3.46-.86,16.83,16.83,0,0,0-2.57-.77,19.33,19.33,0,0,0-3-.42c-.62,0-1.35-.08-2.18-.09s-1.67,0-2.53,0-1.7,0-2.51.09l-2.07.09c-1.56.1-2.85.19-3.88.29s-1.89.18-2.58.27a12.4,12.4,0,0,0-1.65.29c-.42.1-.8.21-1.14.3a2.31,2.31,0,0,1-1.6.18c-.3-.14-.43-.48-.38-1a3.17,3.17,0,0,1,.34-1.08,2.88,2.88,0,0,1,1.17-1,2.26,2.26,0,0,1,1.66-.36,9,9,0,0,0,1.4.21,7.22,7.22,0,0,0,1.41-.07,7,7,0,0,1,1.33-.11.32.32,0,0,0,.36-.36c0-1.7,0-3,.07-4s0-1.73,0-2.29-.05-1-.09-1.24a7.84,7.84,0,0,0-.16-.88,4.32,4.32,0,0,1,0-1.64,2,2,0,0,1,2.88-1.39,1.55,1.55,0,0,0,.76.29c.55,0,1.06-.08,1.51-.09l1.59,0a.39.39,0,0,0,.32-.22,1.9,1.9,0,0,0,.14-.47c0-.14.05-.28.08-.43s-.08-.39-.36-.39l-2.76,0a16,16,0,0,0-1.78.09l-1.24.14-.92.15c-.29.05-.58.11-.86.18s-.64.17-1,.29c-1.32.38-2.17.25-2.55-.4a.85.85,0,0,1-.09-.32.71.71,0,0,1,.1-.42,2.81,2.81,0,0,1,.47-.56,7.91,7.91,0,0,1,1-.72,6.41,6.41,0,0,1,.72-.43,2.14,2.14,0,0,1,.54-.18,2.09,2.09,0,0,1,.5,0,2.45,2.45,0,0,1,.54.15,4.14,4.14,0,0,0,.9.12,17.54,17.54,0,0,0,1.84,0c.81,0,1.61,0,2.39,0h2.21a.32.32,0,0,0,.36-.36c0-1,.1-1.55.44-1.78a2.16,2.16,0,0,1,1.62-.12,11.39,11.39,0,0,1,1.17.28,2,2,0,0,1,.68.35.91.91,0,0,1,.31.5,2.28,2.28,0,0,1,0,.74q-.07.39.36.39l1.56,0c.47,0,.9,0,1.28.06l3.1.18,1.9.12,1.08.09.58.07a1.51,1.51,0,0,1,.74.27.8.8,0,0,1,.09.53,1.12,1.12,0,0,1-.25.63,1.37,1.37,0,0,1-.8.3h-.63c-.34,0-.77,0-1.26,0l-1.58,0-1.58-.07-1.26-.06h-.6a10.34,10.34,0,0,0-1.2-.11c-.5,0-1.07,0-1.71,0a.32.32,0,0,0-.36.33,2.25,2.25,0,0,0-.06.36c0,.12,0,.24-.05.36s.07.39.36.39l2,0a5.67,5.67,0,0,1,1.11.09,1.88,1.88,0,0,0,.9.11,4.85,4.85,0,0,0,.76-.29,2.1,2.1,0,0,1,1.24-.2,2,2,0,0,1,1.06.42,2.4,2.4,0,0,1,.8,1.11,3.43,3.43,0,0,1-.08,1.8,5.47,5.47,0,0,0-.16.9c0,.36,0,.85,0,1.46s0,1.38,0,2.3.08,2.07.15,3.44a.32.32,0,0,0,.36.36l5.25.16q2,.06,2.34.09a1.11,1.11,0,0,1,.51.13C219.64,610.8,219.63,611,219.53,611.19Zm-12.27-1.48a.81.81,0,0,0-.08-.45.3.3,0,0,0-.25-.09c-.67,0-1.46-.08-2.37-.1s-1.87,0-2.87,0l-2.95,0-2.64.05a.33.33,0,0,0-.26.09.8.8,0,0,0-.1.38,1.46,1.46,0,0,0,0,.65.31.31,0,0,0,.29.14l2.74-.07,2.86,0c.94,0,1.86,0,2.75,0h2.49a.35.35,0,0,0,.27-.1A.76.76,0,0,0,207.26,609.71Zm0-2.66a1.8,1.8,0,0,0,0-.63c0-.08-.12-.13-.27-.13l-2.46-.07q-1.39,0-2.88,0c-1,0-2,0-2.92,0l-2.54.07c-.16,0-.27,0-.3.08a.73.73,0,0,0-.09.36.9.9,0,0,0,0,.57.35.35,0,0,0,.34.15H203l2.29,0,1.69,0c.17,0,.27,0,.31-.1A1.21,1.21,0,0,0,207.29,607.05Zm.11-5.69a.72.72,0,0,0-.2-.52,2.37,2.37,0,0,0-.92-.2c-1.65-.09-3.36-.14-5.11-.12s-3.43.07-5,.19a.27.27,0,0,0-.25.13,1.22,1.22,0,0,0-.07.52.78.78,0,0,0,.11.52.33.33,0,0,0,.28.13q4.22-.07,6.77,0c1.71,0,3.06,0,4.07.08a.37.37,0,0,0,.34-.13A.85.85,0,0,0,207.4,601.36Zm0,2.85a1,1,0,0,0-.07-.47.28.28,0,0,0-.25-.11c-.7,0-1.51-.08-2.45-.09l-2.9,0c-1,0-2,0-2.93.06l-2.56.09c-.24,0-.36.16-.36.5a1.3,1.3,0,0,0,.08.56c0,.08.14.12.28.12q4.19-.06,6.72-.05t4.08.09a.34.34,0,0,0,.27-.11A1.07,1.07,0,0,0,207.36,604.21Z"/><path d="M240.3,598.41a.78.78,0,0,1-.43.52,2.35,2.35,0,0,1-1.19.16H237a.32.32,0,0,0-.36.36c0,.27,0,.54,0,.83s0,.61,0,1,.16.44.47.36.51-.12.72-.16.42-.08.61-.12c.94-.2,1.49-.13,1.66.19s-.07.78-.72,1.35l-.32.26a2.59,2.59,0,0,1-.38.21c-.16.07-.37.16-.63.25L237,604a.36.36,0,0,0-.25.36c0,.58.07,1.21.09,1.91s0,1.43.09,2.19a8.26,8.26,0,0,1-.58,3.87,5,5,0,0,1-2.66,2.29,11.85,11.85,0,0,1-2.06.63,6.59,6.59,0,0,1-2.26.09,5.76,5.76,0,0,1-4.25-2.77q-.51-.72-.42-.9c.06-.12.33-.09.81.11a9.54,9.54,0,0,0,2.87.59,5.85,5.85,0,0,0,2.46-.38,4.28,4.28,0,0,0,1.77-1.29,3.79,3.79,0,0,0,.75-2.16c0-.34,0-.75.06-1.23s0-1,0-1.62c0-.33-.15-.45-.46-.36s-.84.29-1.28.43-.86.29-1.24.44a4.83,4.83,0,0,1-2.09.34,1,1,0,0,1-1-1,1.81,1.81,0,0,1,.54-1.78,3.83,3.83,0,0,1,1.94-.66c.53,0,1.06-.12,1.59-.22s1.09-.23,1.69-.4c.17,0,.25-.14.25-.36l-.11-2.48q0-.43-.39-.36c-1,.1-1.7.18-2.22.25a8.56,8.56,0,0,0-1.35.29,2.06,2.06,0,0,1-1.9-.14,1,1,0,0,1-.42-1,2.34,2.34,0,0,1,2.5-1.43,3.71,3.71,0,0,0,1.59.11h1.73q.42,0,.36-.39a11.32,11.32,0,0,1-.09-1.16c0-.38-.05-.78-.09-1.18a2.1,2.1,0,0,1,.28-1.53,1.73,1.73,0,0,1,1.34-.35c1.77.05,2.48,1.15,2.12,3.28a1.29,1.29,0,0,0-.07.43,3.81,3.81,0,0,1,0,.54c0,.27.07.4.36.4h1.44q.62,0,.9,0a1.31,1.31,0,0,1,.88.27A.68.68,0,0,1,240.3,598.41ZM255.46,607a3.86,3.86,0,0,0-.05.57c0,.29,0,.62,0,1v2c0,.72,0,1.32,0,1.8s0,.87-.09,1.17a1.84,1.84,0,0,1-.26.72,1.68,1.68,0,0,1-.43.45,3.37,3.37,0,0,1-1.31.52,1.51,1.51,0,0,1-1.21-.23,6.53,6.53,0,0,0-1-.47,5.54,5.54,0,0,0-1.69-.18c-.84,0-1.79,0-2.86.06a27.91,27.91,0,0,0-3.11.34,1.2,1.2,0,0,0-.8.29.7.7,0,0,1-.36.1,1.77,1.77,0,0,1-.64,0,1.43,1.43,0,0,1-1-1,8.07,8.07,0,0,1-.29-2.48c0-.39,0-.83,0-1.34s0-1,0-1.47,0-.93,0-1.33,0-.72,0-.94a3.52,3.52,0,0,1,.24-1.48,1.75,1.75,0,0,1,.84-.93c.7-.34,1.17-.42,1.41-.25a2.38,2.38,0,0,0,1,.28c.48,0,1,.09,1.64.13l1.74.09,1.46,0,.81,0h1.31c.33,0,.58,0,.78,0a1.41,1.41,0,0,0,.43-.07,1.59,1.59,0,0,0,.32-.16,2.65,2.65,0,0,1,.38-.07,2.91,2.91,0,0,1,.6,0,3.25,3.25,0,0,1,.66.11,1.83,1.83,0,0,1,.6.27,2.86,2.86,0,0,1,1,1A2.48,2.48,0,0,1,255.46,607Zm2.45-5.76a2.65,2.65,0,0,1-.47.83,1.92,1.92,0,0,1-.83.5,5.45,5.45,0,0,1-1.42.23c-.59,0-1.33.06-2.21.06h-1.84l-1.64,0-1.74-.05c-.89,0-1.72-.11-2.49-.17s-1.33-.11-1.69-.16a2.76,2.76,0,0,1-2.25-1.22,5.93,5.93,0,0,1-.34-3.28c0-.45.07-.93.09-1.44s0-.89,0-1.15a3.22,3.22,0,0,1,.09-.72,3.58,3.58,0,0,1,.25-.74,5.24,5.24,0,0,1,.32-.59,1.08,1.08,0,0,1,.34-.36,2.11,2.11,0,0,1,1.05-.27,1.85,1.85,0,0,1,.83.2,1.65,1.65,0,0,1,.75,1.72.76.76,0,0,0,.06.38q0,.09.27.09h3.7c.84,0,1.58,0,2.22,0s1.35.06,2.14.11a12.47,12.47,0,0,1,2.34.21.83.83,0,0,1,.76.9,1,1,0,0,1-.9,1,11.22,11.22,0,0,1-2.7.08c-1.54-.08-3-.12-4.25-.15s-2.59,0-3.89,0a.65.65,0,0,0-.36.07c-.05.05-.07.18-.07.4v.43a4,4,0,0,0,0,.47,1.82,1.82,0,0,0,.09.61.83.83,0,0,0,.36.43,2.08,2.08,0,0,0,.76.29c.32.07.75.15,1.28.22s1,.09,1.76.14,1.5.08,2.34.09,1.69,0,2.56,0a21.93,21.93,0,0,0,2.41-.18,4,4,0,0,1,2,.08C258,600.41,258.08,600.74,257.91,601.22Zm-6,6.73c0-.22,0-.4,0-.56s0-.26,0-.3a1.45,1.45,0,0,0-.18-.6,1.18,1.18,0,0,0-.61-.2c-1.08-.07-2.22-.1-3.42-.1s-2.57.06-4.11.18a.32.32,0,0,0-.32.28,3.55,3.55,0,0,0-.09.74c0,.3,0,.54,0,.7s.12.33.36.33c.55,0,1.17,0,1.86-.06l2.1,0,2.14,0h2A.32.32,0,0,0,251.9,608Zm0,2.38a.32.32,0,0,0-.36-.36q-1.62,0-3.6,0c-1.32,0-2.77.12-4.36.22-.21,0-.31.12-.28.36s0,.48.05.74a6.26,6.26,0,0,0,.09.81c0,.21.13.32.32.32.8-.05,1.74-.08,2.85-.09s2.41,0,3.92,0a3.16,3.16,0,0,0,1.08-.11c.15-.07.23-.25.25-.54a2.86,2.86,0,0,0,0-.56Z"/><path d="M299,611.66a6.4,6.4,0,0,1-.81,1,7.16,7.16,0,0,1-1.06.91,7.63,7.63,0,0,1-1.19.71,4.8,4.8,0,0,1-1.18.39,4.19,4.19,0,0,1-2.45-.34,9.11,9.11,0,0,1-3-2.29l-1.48-1.44c-.65-.62-1.38-1.31-2.2-2.07l-2.55-2.37-2.56-2.4c-.24-.24-.43-.2-.57.11a19.5,19.5,0,0,1-4.45,6.45,16.63,16.63,0,0,1-6.28,3.63,4.86,4.86,0,0,1-2.86.25,3,3,0,0,1-1.79-1.62.73.73,0,0,1-.1-.55c0-.11.24-.19.57-.24A17.24,17.24,0,0,0,268,611a19.84,19.84,0,0,0,2.85-1.31,17.47,17.47,0,0,0,2.53-1.75,11.89,11.89,0,0,0,2-2.09,18.37,18.37,0,0,0,1.46-2.32,13.54,13.54,0,0,0,.95-2.29,13.16,13.16,0,0,0,.51-2.39,16,16,0,0,0,.07-2.61c-.05-1.22.19-2,.7-2.3s1.21-.2,2.07.36a2.71,2.71,0,0,1,.83.82,2.41,2.41,0,0,1,.29,1.25,8.81,8.81,0,0,1-.29,2c-.19.79-.49,1.77-.9,2.95a.3.3,0,0,0,.11.4c1.46,1,2.94,2,4.44,2.86s3,1.72,4.43,2.46,2.86,1.41,4.21,2A39.64,39.64,0,0,0,298,610.4c.64.19,1,.38,1.11.57A.68.68,0,0,1,299,611.66Z"/><path d="M309.5,600.75a24.27,24.27,0,0,1-.27,6.55,6.72,6.72,0,0,1-1.82,3.82,2.4,2.4,0,0,1-1.6.74,2.22,2.22,0,0,1-1.57-1.07,1.75,1.75,0,0,1-.4-1.38,4.34,4.34,0,0,1,.62-1.57,33.92,33.92,0,0,0,2.12-3.85,30,30,0,0,0,1.4-3.64q.36-1.08.9-.93C309.24,599.52,309.45,600,309.5,600.75Zm28.8,7.88a8.14,8.14,0,0,1-1.43,2.87,9,9,0,0,1-3,2.39,4.19,4.19,0,0,1-1.56.49,7.25,7.25,0,0,1-1.68,0A8.29,8.29,0,0,1,329,614a13.89,13.89,0,0,1-1.44-.59c-1.15-.63-2.2-1.23-3.15-1.82s-1.83-1.2-2.64-1.82c-1-.79-2.07-1.57-3.19-2.32s-2.46-1.65-4.05-2.68c-.89-.51-1.55-.66-2-.47s-.83.29-1,.07-.25-.6-.11-1.15a5.84,5.84,0,0,0,.22-1.17,3.71,3.71,0,0,0,0-.92c-.12-.67.2-1.1,1-1.3a1.89,1.89,0,0,1,1.26.18,3.06,3.06,0,0,1,1.19,1.37,3.57,3.57,0,0,0,.83,1,11.34,11.34,0,0,0,1.44,1,.32.32,0,0,0,.39,0,7.41,7.41,0,0,0,2-2.79,19.51,19.51,0,0,0,1.34-4.2,10.58,10.58,0,0,1,.43-1.54,1.51,1.51,0,0,1,.52-.78.85.85,0,0,1,.76-.05,5.77,5.77,0,0,1,1.13.54,2.56,2.56,0,0,1,1.19,1.47,2.45,2.45,0,0,1-.33,1.91,8.77,8.77,0,0,1-1.08,1.46c-.45.52-.95,1-1.49,1.57s-1.11,1-1.69,1.49-1.14.88-1.64,1.24a.52.52,0,0,0-.24.29c0,.1.08.2.27.32.63.36,1.22.69,1.77,1s1.07.56,1.55.82a.19.19,0,0,0,.2,0,.4.4,0,0,0,.19-.11,10.13,10.13,0,0,0,2-1.8,16.44,16.44,0,0,0,1.51-2.1,16.93,16.93,0,0,0,1-2,6.66,6.66,0,0,0,.45-1.46c.19-1.23.51-1.94,1-2.14s1.13,0,2,.52A2,2,0,0,1,331.6,599a5.88,5.88,0,0,1-1.51,2.72q-.76.9-1.35,1.53a13,13,0,0,1-1.23,1.14,12.67,12.67,0,0,1-1.4,1c-.52.3-1.17.63-2,1-.2.1-.31.2-.34.31s.07.22.34.34a14.21,14.21,0,0,0,1.69.61,18.67,18.67,0,0,0,3.28.72,25.06,25.06,0,0,0,3.15.22,19.15,19.15,0,0,0,2.73-.18,12.64,12.64,0,0,0,2.11-.47q1-.36,1.2-.24C338.44,607.73,338.44,608.06,338.3,608.63Z"/><path d="M201.62,505.76q0,5.33-2.75,8T191,516.54a31.62,31.62,0,0,1-5.32-.42V496a32,32,0,0,1,5.32-.42q5.11,0,7.88,2.65C200.7,500,201.62,502.48,201.62,505.76Zm-2.94,0a6.87,6.87,0,0,0-7.7-7.7,11.5,11.5,0,0,0-2.24.2v15.56a10.78,10.78,0,0,0,2.24.2q3.92,0,5.81-2T198.68,505.76Z"/><path d="M210.27,498.34v5.82H219v2.41h-8.68v7.17h9.24v2.52H207.19V495.82h12.32v2.52Z"/><path d="M231.94,498a4,4,0,0,0-2.63.77,2.58,2.58,0,0,0-.93,2.09q0,2.33,3.42,3.36A11.83,11.83,0,0,1,237,506.8a5.42,5.42,0,0,1,1.53,4,5.23,5.23,0,0,1-1.78,4.26,7.71,7.71,0,0,1-5.08,1.48,12.07,12.07,0,0,1-6.3-1.68l.84-2.52a9.65,9.65,0,0,0,5.46,1.68,4.18,4.18,0,0,0,2.8-.84,3,3,0,0,0,1-2.38,3.25,3.25,0,0,0-.78-2.3A6.75,6.75,0,0,0,231.8,507a11.72,11.72,0,0,1-4.89-2.49,5,5,0,0,1-1.55-3.67,4.76,4.76,0,0,1,1.75-3.86,7.35,7.35,0,0,1,4.83-1.46,14.5,14.5,0,0,1,6,1.26l-.7,2.38A12.13,12.13,0,0,0,231.94,498Z"/><path d="M245.35,516.26V495.82h3.36v20.44Z"/><path d="M270,506.57h-6.44v-2.41h9.38V515a15.19,15.19,0,0,1-6.86,1.54A11.27,11.27,0,0,1,258,513.7a10.07,10.07,0,0,1-3-7.66,10.26,10.26,0,0,1,2.9-7.66,10.78,10.78,0,0,1,7.88-2.84,11.87,11.87,0,0,1,6.36,1.71l-1,2.24A9.74,9.74,0,0,0,266,498a7.68,7.68,0,0,0-5.82,2.19,8.08,8.08,0,0,0-2.1,5.85,7.88,7.88,0,0,0,2.21,5.87,8.22,8.22,0,0,0,6,2.17,9.19,9.19,0,0,0,3.64-.7Z"/><path d="M279.46,516.26V495.82h3l9.58,15.26h.05V495.82h3v20.44h-3L282.54,501h-.06v15.26Z"/><path d="M326.24,510.38q0,6.17-8.12,6.16a35.31,35.31,0,0,1-5.6-.42V496a32.05,32.05,0,0,1,5.32-.42q7.56,0,7.56,5a4.27,4.27,0,0,1-1.14,2.95,5.33,5.33,0,0,1-3.06,1.64v.06a6.39,6.39,0,0,1,3.7,1.73A4.69,4.69,0,0,1,326.24,510.38Zm-10.64-6.22h1.12a9.35,9.35,0,0,0,4.44-.78,2.57,2.57,0,0,0,1.36-2.38,2.53,2.53,0,0,0-1.09-2.27,6.76,6.76,0,0,0-3.59-.73,11.58,11.58,0,0,0-2.24.2Zm0,2.41v7.31a14.46,14.46,0,0,0,2.52.2,6.22,6.22,0,0,0,3.87-1,3.62,3.62,0,0,0,1.23-3,2.87,2.87,0,0,0-1.49-2.67,10.61,10.61,0,0,0-5-.86Z"/><path d="M334.9,498.34v5.82h8.67v2.41H334.9v7.17h9.24v2.52H331.81V495.82h12.33v2.52Z"/><path d="M352.76,495.82l5.23,9.52h.06l5.24-9.52h3.5l-7.2,12v8.4h-3.25v-8.4l-7.19-12Z"/><path d="M373.56,498.4a10.84,10.84,0,0,1,14.67,0,12,12,0,0,1,0,15.28,10.84,10.84,0,0,1-14.67,0,12,12,0,0,1,0-15.28Zm2.3,13.48a7,7,0,0,0,10.08,0,9.93,9.93,0,0,0,0-11.68,7,7,0,0,0-10.08,0,9.88,9.88,0,0,0,0,11.68Z"/><path d="M396.55,516.26V495.82h3l9.58,15.26h.06V495.82h3v20.44h-3L399.63,501h-.06v15.26Z"/><path d="M435,505.76q0,5.33-2.74,8t-7.9,2.73a31.71,31.71,0,0,1-5.32-.42V496a32.05,32.05,0,0,1,5.32-.42q5.13,0,7.88,2.65C434.1,500,435,502.48,435,505.76Zm-2.94,0q0-3.81-2-5.75a7.79,7.79,0,0,0-5.74-1.95,11.58,11.58,0,0,0-2.24.2v15.56a10.84,10.84,0,0,0,2.24.2c2.62,0,4.55-.68,5.81-2S432.08,508.56,432.08,505.76Z"/><path d="M464.87,510.38q0,6.17-8.12,6.16a35.22,35.22,0,0,1-5.6-.42V496a32,32,0,0,1,5.32-.42q7.56,0,7.56,5a4.23,4.23,0,0,1-1.15,2.95,5.27,5.27,0,0,1-3.05,1.64v.06a6.39,6.39,0,0,1,3.7,1.73A4.73,4.73,0,0,1,464.87,510.38Zm-10.64-6.22h1.12a9.41,9.41,0,0,0,4.44-.78,2.58,2.58,0,0,0,1.36-2.38,2.54,2.54,0,0,0-1.1-2.27,6.7,6.7,0,0,0-3.58-.73,11.5,11.5,0,0,0-2.24.2Zm0,2.41v7.31a14.46,14.46,0,0,0,2.52.2,6.2,6.2,0,0,0,3.86-1,3.6,3.6,0,0,0,1.24-3,2.87,2.87,0,0,0-1.49-2.67,10.67,10.67,0,0,0-5-.86Z"/><path d="M471.93,498.4a10.84,10.84,0,0,1,14.67,0,12,12,0,0,1,0,15.28,10.84,10.84,0,0,1-14.67,0,12,12,0,0,1,0-15.28Zm2.29,13.48a7,7,0,0,0,10.08,0,9.88,9.88,0,0,0,0-11.68,7,7,0,0,0-10.08,0,9.93,9.93,0,0,0,0,11.68Z"/><path d="M497.77,495.82v12.32q0,5.82,4.62,5.82t4.62-5.82V495.82h3V508q0,4.23-2,6.38a8.64,8.64,0,0,1-11.43,0c-1.32-1.43-2-3.56-2-6.38V495.82Z"/><path d="M516.59,516.26V495.82h3l9.58,15.26h0V495.82h3v20.44h-3L519.67,501h-.06v15.26Z"/><path d="M555.06,505.76q0,5.33-2.75,8t-7.89,2.73a31.62,31.62,0,0,1-5.32-.42V496a32,32,0,0,1,5.32-.42q5.12,0,7.88,2.65C554.14,500,555.06,502.48,555.06,505.76Zm-2.94,0a6.87,6.87,0,0,0-7.7-7.7,11.5,11.5,0,0,0-2.24.2v15.56a10.78,10.78,0,0,0,2.24.2q3.92,0,5.81-2T552.12,505.76Z"/><path d="M559.23,516.26l7.28-20.44h3.36l7.28,20.44h-3.3l-1.77-5.43h-7.89l-1.77,5.43Zm5.71-7.84h6.39l-3.17-9.8h0Z"/><path d="M585.66,507.86v8.4h-3.08V496a35.58,35.58,0,0,1,5.6-.42,10.38,10.38,0,0,1,6.08,1.48,4.82,4.82,0,0,1,2,4.12,6,6,0,0,1-1.09,3.64,5.47,5.47,0,0,1-3,2.07v.06a6.69,6.69,0,0,1,2.24,3.33l2.38,6h-3.19l-2.32-6a3.9,3.9,0,0,0-1.31-1.95,5.84,5.84,0,0,0-2.7-.43Zm0-2.41h1.68q5.94,0,5.94-4a2.88,2.88,0,0,0-1.28-2.56,7.54,7.54,0,0,0-4.1-.86,11.5,11.5,0,0,0-2.24.2Z"/><path d="M603.27,516.26V495.82h3.36v20.44Z"/><path d="M617.24,498.34v5.82h8.69v2.41h-8.69v7.17h9.24v2.52H614.16V495.82h12.32v2.52Z"/><path d="M638.92,498a4.05,4.05,0,0,0-2.64.77,2.6,2.6,0,0,0-.92,2.09q0,2.33,3.42,3.36A11.89,11.89,0,0,1,644,506.8a5.42,5.42,0,0,1,1.53,4,5.26,5.26,0,0,1-1.78,4.26,7.73,7.73,0,0,1-5.08,1.48,12.07,12.07,0,0,1-6.3-1.68l.84-2.52a9.65,9.65,0,0,0,5.46,1.68,4.2,4.2,0,0,0,2.8-.84,3,3,0,0,0,1-2.38,3.21,3.21,0,0,0-.79-2.3,6.64,6.64,0,0,0-2.85-1.48,11.72,11.72,0,0,1-4.89-2.49,4.91,4.91,0,0,1-1.55-3.67,4.76,4.76,0,0,1,1.75-3.86,7.31,7.31,0,0,1,4.83-1.46,14.53,14.53,0,0,1,6,1.26l-.7,2.38A12.16,12.16,0,0,0,638.92,498Z"/><path d="M198.11,547.06h-9.89v7.84h9.33v1.18h-9.33V566.3h-1.4V545.86h11.29Z"/><path d="M212.56,565.35q5.82,0,5.82-6.81V545.86h1.4v12.66a8.64,8.64,0,0,1-1.88,6,8,8,0,0,1-10.73,0q-1.87-2.06-1.87-6V545.86h1.43v12.68Q206.73,565.35,212.56,565.35Z"/><path d="M228.82,545.86v19.21h10.59v1.23h-12V545.86Z"/><path d="M248.06,545.86v19.21h10.58v1.23h-12V545.86Z"/><path d="M271.24,546.78a5.31,5.31,0,0,0-3.34.94,3.14,3.14,0,0,0-1.19,2.62c0,2,1.52,3.55,4.56,4.48a10.88,10.88,0,0,1,4.68,2.46,5.31,5.31,0,0,1,1.42,3.84,5.11,5.11,0,0,1-1.6,4,6.8,6.8,0,0,1-4.61,1.41,10,10,0,0,1-6-1.88l.5-1.12a9,9,0,0,0,5.52,1.8,5.22,5.22,0,0,0,3.58-1.1,4,4,0,0,0,1.24-3.16,4.23,4.23,0,0,0-1.11-3,8.71,8.71,0,0,0-3.71-2c-3.88-1.16-5.83-3.08-5.83-5.77a4.28,4.28,0,0,1,1.56-3.46,6.57,6.57,0,0,1,4.35-1.3,12.38,12.38,0,0,1,5.74,1.34l-.39,1.12A11.15,11.15,0,0,0,271.24,546.78Z"/><path d="M283.84,545.86H298.6v1.23h-6.69V566.3h-1.4V547.09h-6.67Z"/><path d="M304.37,566.3,312,545.86h1.68l7.67,20.44h-1.51l-2.35-6.47h-9.33l-2.35,6.47Zm4.25-7.64h8.46l-4.2-11.57h-.06Z"/><path d="M336.65,546.78a8.17,8.17,0,0,0-6.31,2.52,9.57,9.57,0,0,0-2.34,6.78,9.46,9.46,0,0,0,2.38,6.76,8.2,8.2,0,0,0,6.27,2.54,10.12,10.12,0,0,0,5.63-1.68l.53,1.09a10.92,10.92,0,0,1-6.24,1.79,9.56,9.56,0,0,1-7.27-2.86,12.15,12.15,0,0,1,0-15.31,9.6,9.6,0,0,1,7.3-2.83,10.92,10.92,0,0,1,6.24,1.79l-.53,1.09A9.93,9.93,0,0,0,336.65,546.78Z"/><path d="M351.55,545.86v9.27h.05l10.11-9.27h1.79l-10.75,9.8,11,10.64H362L351.6,556.19h-.05V566.3h-1.4V545.86Z"/><path d="M396.35,555.8q0,5.26-2.75,8t-7.89,2.76a21.52,21.52,0,0,1-4.57-.45V546a22.07,22.07,0,0,1,4.57-.45q5.15,0,7.89,2.65C395.43,550,396.35,552.52,396.35,555.8Zm-10.64-9a16.55,16.55,0,0,0-3.17.34V565a16.55,16.55,0,0,0,3.17.34c3,0,5.35-.82,6.93-2.44s2.36-4,2.36-7.14q0-4.42-2.36-6.72T385.71,546.78Z"/><path d="M404.38,547.06v7.56H414v1.18h-9.61v9.3h10.17v1.2H403V545.86h11.57v1.2Z"/><path d="M427.57,546.78a5.32,5.32,0,0,0-3.35.94,3.16,3.16,0,0,0-1.19,2.62c0,2,1.52,3.55,4.56,4.48a10.82,10.82,0,0,1,4.68,2.46,5.32,5.32,0,0,1,1.43,3.84,5.12,5.12,0,0,1-1.61,4,6.8,6.8,0,0,1-4.61,1.41,10,10,0,0,1-6-1.88l.51-1.12a9,9,0,0,0,5.51,1.8,5.26,5.26,0,0,0,3.59-1.1,4,4,0,0,0,1.23-3.16,4.23,4.23,0,0,0-1.11-3,8.71,8.71,0,0,0-3.71-2q-5.82-1.74-5.82-5.77a4.3,4.3,0,0,1,1.55-3.46,6.59,6.59,0,0,1,4.36-1.3,12.41,12.41,0,0,1,5.74,1.34l-.4,1.12A11.11,11.11,0,0,0,427.57,546.78Z"/><path d="M441.85,566.3V545.86h1.48V566.3Z"/><path d="M461.36,546.78a8.7,8.7,0,0,0-6.59,2.5,10.75,10.75,0,0,0,0,13.59,8.83,8.83,0,0,0,6.64,2.51,13.15,13.15,0,0,0,5.51-1.1V555.8h-7.75v-1.18h9.1v10.45a15.44,15.44,0,0,1-6.95,1.51,10.18,10.18,0,0,1-7.57-2.86,10.32,10.32,0,0,1-2.84-7.64,10.45,10.45,0,0,1,2.78-7.64,10,10,0,0,1,7.52-2.86,11.78,11.78,0,0,1,6.33,1.68l-.53,1.06A10.86,10.86,0,0,0,461.36,546.78Z"/><path d="M475.92,566.3V545.86h1.6l11.7,18.31h.06V545.86h1.4V566.3h-1.63L477.35,548h-.06V566.3Z"/><path d="M518.26,546.78a8.21,8.21,0,0,0-6.32,2.52,9.57,9.57,0,0,0-2.34,6.78,9.46,9.46,0,0,0,2.39,6.76,8.18,8.18,0,0,0,6.27,2.54,10.12,10.12,0,0,0,5.63-1.68l.53,1.09a11,11,0,0,1-6.25,1.79,9.56,9.56,0,0,1-7.26-2.86,12.15,12.15,0,0,1,0-15.31,9.59,9.59,0,0,1,7.29-2.83,11,11,0,0,1,6.25,1.79l-.53,1.09A9.93,9.93,0,0,0,518.26,546.78Z"/><path d="M547.56,563.7a10.38,10.38,0,0,1-14.35,0,12,12,0,0,1,0-15.24,10.38,10.38,0,0,1,14.35,0,12,12,0,0,1,0,15.24Zm-13.32-.87a8.67,8.67,0,0,0,12.28,0,10.91,10.91,0,0,0,0-13.5,8.67,8.67,0,0,0-12.28,0,11,11,0,0,0,0,13.5Z"/><path d="M572.1,555.8q0,5.26-2.74,8t-7.9,2.76a21.49,21.49,0,0,1-4.56-.45V546a22,22,0,0,1,4.56-.45q5.16,0,7.9,2.65C571.19,550,572.1,552.52,572.1,555.8Zm-10.64-9a16.46,16.46,0,0,0-3.16.34V565a16.46,16.46,0,0,0,3.16.34c3,0,5.35-.82,6.93-2.44s2.37-4,2.37-7.14q0-4.42-2.37-6.72T561.46,546.78Z"/><path d="M579.72,566.3V545.86h1.48V566.3Z"/><path d="M590.08,566.3V545.86h1.59l11.71,18.31h0V545.86h1.4V566.3h-1.62L591.51,548h-.06V566.3Z"/><path d="M621.86,546.78a8.74,8.74,0,0,0-6.6,2.5,9.43,9.43,0,0,0-2.39,6.8,9.33,9.33,0,0,0,2.43,6.79,8.85,8.85,0,0,0,6.64,2.51,13.23,13.23,0,0,0,5.52-1.1V555.8H619.7v-1.18h9.1v10.45a15.39,15.39,0,0,1-6.94,1.51,10.2,10.2,0,0,1-7.58-2.86,11.78,11.78,0,0,1,0-15.28,10,10,0,0,1,7.51-2.86,11.78,11.78,0,0,1,6.33,1.68l-.53,1.06A10.83,10.83,0,0,0,621.86,546.78Z"/></g></g></svg>